<?xml version="1.0" encoding="utf-8"?>
<!-- Generator: Adobe Illustrator 18.1.1, SVG Export Plug-In . SVG Version: 6.00 Build 0)  -->
<svg version="1.1" id="Layer_1" xmlns="http://www.w3.org/2000/svg" xmlns:xlink="http://www.w3.org/1999/xlink" x="0px" y="0px"
	 viewBox="0 0 371.5 61" enable-background="new 0 0 371.5 61" xml:space="preserve">
<g>
	<g>
		<g>
			<path fill="#140958" d="M32,60.3c-8,0-15.4-3.1-21.1-8.7c-5.6-5.6-8.7-13.1-8.7-21.1S5.3,15.1,11,9.4C16.6,3.8,24.1,0.7,32,0.7
				s15.4,3.1,21.1,8.7c5.6,5.6,8.7,13.1,8.7,21.1s-3.1,15.4-8.7,21.1C47.5,57.2,40,60.3,32,60.3z M32,1.6c-15.9,0-28.9,13-28.9,28.9
				s13,28.9,28.9,28.9s28.9-13,28.9-28.9S48,1.6,32,1.6z"/>
		</g>
	</g>
	<g>
		<g>
			<path fill-rule="evenodd" clip-rule="evenodd" fill="#FFF350" d="M32,2.8c15.3,0,27.7,12.4,27.7,27.7S47.3,58.2,32,58.2
				S4.3,45.8,4.3,30.5S16.7,2.8,32,2.8L32,2.8z"/>
		</g>
		<g>
			<path fill="#00974A" d="M32,58.7C16.5,58.7,3.9,46,3.9,30.5S16.5,2.3,32,2.3S60.2,15,60.2,30.5S47.6,58.7,32,58.7z M32,3.2
				C17,3.2,4.8,15.5,4.8,30.5S17,57.8,32,57.8c15,0,27.3-12.2,27.3-27.3S47.1,3.2,32,3.2z"/>
		</g>
	</g>
	<g>
		<g>
			<path fill-rule="evenodd" clip-rule="evenodd" fill="#140958" d="M31.4,13.3l4.7,9.5h-1.6c-1.4-2.6-2.7-5.2-4-7.8L31.4,13.3
				L31.4,13.3z"/>
		</g>
	</g>
	<g>
		<g>
			<polygon fill-rule="evenodd" clip-rule="evenodd" fill="#140958" points="29.5,16.9 33.2,24.1 32.2,25.3 29.5,20.1 26.2,26.7 
				26.2,26.7 26.1,26.9 24.5,26.9 29.5,16.9 			"/>
		</g>
	</g>
	<g>
		<g>
			<path fill-rule="evenodd" clip-rule="evenodd" fill="#140958" d="M36.7,43.7L36.7,43.7c-2.6-0.1-4.9-1.9-5.6-4.3H18.3l0.8-1.5
				h11.7h1.5c0.2,2.3,2.1,4.2,4.4,4.3v0h5.6l0-5.2h1.5l0,6.7C41.4,43.7,39.1,43.7,36.7,43.7L36.7,43.7z"/>
		</g>
	</g>
	<g>
		<g>
			<path fill-rule="evenodd" clip-rule="evenodd" fill="#00974A" d="M36.7,22.2L36.7,22.2c-2.6,0.1-4.9,1.9-5.6,4.3h-6.3L24,28h0
				l-3.3,6.5h0L19.9,36h1.6h9.2h1h0.5c0.2-2.3,2.1-4.2,4.4-4.3v0h5.6v0h1.5V28v-2.1v-3.7C41.4,22.1,39.1,22.2,36.7,22.2L36.7,22.2z
				 M42.3,23.7v2.2V28v2.2h-5.6v0c-1.8,0.1-3.3,0.9-4.4,2.2v-4.4c0.2-2.3,2.1-4.1,4.4-4.2v0H42.3L42.3,23.7z M30.8,34.5h-8.5
				l3.3-6.5h5.1h0V34.5L30.8,34.5z"/>
		</g>
	</g>
	<g>
		<g>
			<path fill-rule="evenodd" clip-rule="evenodd" fill="#FFFFFF" d="M42.3,23.7c0,2.2,0,4.3,0,6.5h-5.6v0c-1.8,0.1-3.3,0.9-4.4,2.2
				v-4.4c0.2-2.3,2.1-4.1,4.4-4.2v0H42.3L42.3,23.7z M30.8,34.5h-8.5l3.3-6.5h5.1h0V34.5L30.8,34.5z"/>
		</g>
	</g>
	<g>
		<g>
			<path fill-rule="evenodd" clip-rule="evenodd" fill="#00974A" d="M31.1,26.5h-0.4h-5.9L24,28h0l-3.3,6.5l0,0L20,36h1.6h9.3v-1.5
				h-8.5l3.3-6.5h5.2C30.8,27.5,30.9,26.9,31.1,26.5L31.1,26.5z"/>
		</g>
	</g>
	<g>
		<g>
			<path fill="#EC1C24" d="M28.4,51.1l-0.4,4l-0.8-0.2l0.2-2.1c0-0.3,0-0.5,0-0.6c0-0.1,0-0.1-0.1-0.2c0,0-0.2-0.1-0.4-0.1l-0.1,0
				l0-0.5c0.4,0,0.7-0.2,0.9-0.5L28.4,51.1z"/>
		</g>
	</g>
	<g>
		<g>
			<path fill="#EC1C24" d="M29.6,54.1l0.8,0.1c0,0.2,0,0.3,0,0.4c0,0,0,0.1,0,0.1c0,0,0.1,0.1,0.1,0.1c0,0,0.1,0,0.1,0
				c0,0,0-0.1,0.1-0.1c0,0,0-0.1,0-0.3l0-0.6c0,0.1-0.1,0.2-0.2,0.2c-0.1,0-0.2,0.1-0.3,0c-0.1,0-0.3-0.1-0.4-0.2
				c-0.1-0.1-0.2-0.2-0.2-0.4c0-0.1,0-0.3,0-0.6l0-0.3c0-0.3,0-0.5,0.1-0.6c0-0.1,0.1-0.3,0.2-0.4c0.1-0.1,0.2-0.2,0.3-0.2
				c0.1-0.1,0.3-0.1,0.5,0c0.2,0,0.4,0.1,0.5,0.2c0.1,0.1,0.2,0.2,0.3,0.4c0.1,0.1,0.1,0.3,0.1,0.5c0,0.2,0,0.5,0,0.9l0,0.6
				c0,0.5,0,0.8-0.1,1c0,0.2-0.1,0.3-0.2,0.4c-0.1,0.1-0.2,0.2-0.3,0.3c-0.1,0.1-0.3,0.1-0.5,0.1c-0.2,0-0.4-0.1-0.5-0.2
				c-0.1-0.1-0.2-0.2-0.3-0.4C29.6,54.6,29.6,54.4,29.6,54.1z M30.5,52.9c0,0.2,0,0.3,0,0.3c0,0,0.1,0.1,0.1,0.1
				c0.1,0,0.1,0,0.1-0.1c0,0,0-0.1,0.1-0.3l0-0.7c0-0.2,0-0.3,0-0.4c0-0.1-0.1-0.1-0.1-0.1c0,0-0.1,0-0.1,0.1c0,0-0.1,0.2-0.1,0.3
				L30.5,52.9z"/>
		</g>
	</g>
	<g>
		<g>
			<path fill="#EC1C24" d="M32.6,54.3l0.8-0.1c0,0.2,0,0.3,0,0.4c0,0,0,0.1,0.1,0.1c0,0,0.1,0,0.1,0c0,0,0.1,0,0.1-0.1
				c0,0,0-0.1,0-0.1c0-0.1,0-0.2,0-0.3l0-0.6c0,0.1-0.1,0.2-0.2,0.3c-0.1,0.1-0.2,0.1-0.3,0.1c-0.1,0-0.3,0-0.4-0.1
				c-0.1-0.1-0.2-0.2-0.2-0.3c0-0.1-0.1-0.3-0.1-0.6l0-0.3c0-0.3,0-0.5,0-0.6c0-0.1,0-0.3,0.1-0.4c0.1-0.1,0.2-0.2,0.3-0.3
				c0.1-0.1,0.3-0.1,0.5-0.1c0.2,0,0.4,0,0.5,0.1c0.1,0.1,0.3,0.2,0.3,0.3c0.1,0.1,0.1,0.3,0.2,0.4c0,0.2,0,0.5,0.1,0.9l0,0.6
				c0,0.5,0,0.8,0,1c0,0.2,0,0.3-0.1,0.5c-0.1,0.2-0.2,0.3-0.3,0.4c-0.1,0.1-0.3,0.1-0.5,0.1c-0.2,0-0.4,0-0.6-0.1
				c-0.1-0.1-0.3-0.2-0.3-0.4C32.7,54.8,32.6,54.5,32.6,54.3z M33.3,53c0,0.2,0,0.3,0.1,0.3c0,0,0.1,0.1,0.1,0.1
				c0.1,0,0.1,0,0.1-0.1c0-0.1,0-0.2,0-0.3l0-0.7c0-0.2,0-0.3-0.1-0.3c0-0.1-0.1-0.1-0.1-0.1c0,0-0.1,0-0.1,0.1c0,0,0,0.2,0,0.3
				L33.3,53z"/>
		</g>
	</g>
	<g>
		<g>
			<path fill="#EC1C24" d="M35.6,54l0.8-0.2c0,0.2,0.1,0.3,0.1,0.3c0,0,0,0.1,0.1,0.1c0,0,0.1,0,0.1,0c0,0,0.1,0,0.1-0.1
				c0,0,0-0.1,0-0.1c0,0,0-0.1-0.1-0.3l-0.1-0.6c0,0.1-0.1,0.2-0.1,0.3c-0.1,0.1-0.2,0.1-0.3,0.2c-0.1,0-0.3,0-0.4,0
				c-0.1-0.1-0.2-0.2-0.3-0.3c-0.1-0.1-0.1-0.3-0.2-0.5l-0.1-0.3c-0.1-0.3-0.1-0.5-0.1-0.6c0-0.1,0-0.3,0.1-0.4
				c0-0.1,0.1-0.3,0.2-0.4c0.1-0.1,0.3-0.2,0.4-0.2c0.2-0.1,0.4-0.1,0.5-0.1c0.1,0,0.3,0.1,0.4,0.2c0.1,0.1,0.2,0.2,0.2,0.4
				c0,0.1,0.1,0.4,0.2,0.9l0.1,0.5c0.1,0.5,0.2,0.8,0.2,0.9c0,0.2,0,0.3,0,0.5c0,0.2-0.1,0.3-0.3,0.4c-0.1,0.1-0.3,0.2-0.4,0.3
				c-0.2,0.1-0.4,0.1-0.6,0c-0.2,0-0.3-0.1-0.4-0.3C35.8,54.5,35.7,54.3,35.6,54z M36.1,52.5c0,0.2,0.1,0.3,0.1,0.3c0,0,0.1,0,0.1,0
				c0.1,0,0.1-0.1,0.1-0.1c0-0.1,0-0.2,0-0.3l-0.2-0.7c0-0.2-0.1-0.3-0.1-0.3c0,0-0.1-0.1-0.1,0c0,0-0.1,0-0.1,0.1
				c0,0.1,0,0.2,0,0.4L36.1,52.5z"/>
		</g>
	</g>
	<g>
		<g>
			<polygon fill-rule="evenodd" clip-rule="evenodd" fill="#EC1C24" points="22.7,51.3 23.8,52.2 23.6,51.6 22.7,51.3 			"/>
		</g>
	</g>
	<g>
		<g>
			<polygon fill-rule="evenodd" clip-rule="evenodd" fill="#00ADEE" points="23.8,52.2 22.7,51.3 23.1,52.2 23.8,52.2 			"/>
		</g>
	</g>
	<g>
		<g>
			<polygon fill-rule="evenodd" clip-rule="evenodd" fill="#EC1C24" points="23.8,52.2 23.1,52.2 22.6,53.1 23.8,52.2 			"/>
		</g>
	</g>
	<g>
		<g>
			<polygon fill-rule="evenodd" clip-rule="evenodd" fill="#00ADEE" points="23.8,52.2 22.6,53.1 23.6,52.9 23.8,52.2 			"/>
		</g>
	</g>
	<g>
		<g>
			<polygon fill-rule="evenodd" clip-rule="evenodd" fill="#EC1C24" points="23.8,52.2 23.6,52.9 24.2,53.7 23.8,52.2 			"/>
		</g>
	</g>
	<g>
		<g>
			<polygon fill-rule="evenodd" clip-rule="evenodd" fill="#00ADEE" points="23.8,52.2 24.2,53.7 24.3,52.6 23.8,52.2 			"/>
		</g>
	</g>
	<g>
		<g>
			<polygon fill-rule="evenodd" clip-rule="evenodd" fill="#EC1C24" points="23.8,52.2 24.3,52.6 25.3,52.3 23.8,52.2 			"/>
		</g>
	</g>
	<g>
		<g>
			<polygon fill-rule="evenodd" clip-rule="evenodd" fill="#00ADEE" points="23.8,52.2 25.3,52.3 24.3,51.8 23.8,52.2 			"/>
		</g>
	</g>
	<g>
		<g>
			<polygon fill-rule="evenodd" clip-rule="evenodd" fill="#EC1C24" points="23.8,52.2 24.3,51.8 24.3,50.8 23.8,52.2 			"/>
		</g>
	</g>
	<g>
		<g>
			<polygon fill-rule="evenodd" clip-rule="evenodd" fill="#00ADEE" points="23.8,52.2 23.6,51.6 24.3,50.8 23.8,52.2 			"/>
		</g>
	</g>
	<g>
		<g>
			<polygon fill-rule="evenodd" clip-rule="evenodd" fill="#EC1C24" points="41.6,51.3 40.4,52.2 40.6,51.6 41.6,51.3 			"/>
		</g>
	</g>
	<g>
		<g>
			<polygon fill-rule="evenodd" clip-rule="evenodd" fill="#00ADEE" points="40.4,52.2 41.6,51.3 41.1,52.2 40.4,52.2 			"/>
		</g>
	</g>
	<g>
		<g>
			<polygon fill-rule="evenodd" clip-rule="evenodd" fill="#EC1C24" points="40.4,52.2 41.1,52.2 41.7,53.1 40.4,52.2 			"/>
		</g>
	</g>
	<g>
		<g>
			<polygon fill-rule="evenodd" clip-rule="evenodd" fill="#00ADEE" points="40.4,52.2 41.7,53.1 40.7,52.9 40.4,52.2 			"/>
		</g>
	</g>
	<g>
		<g>
			<polygon fill-rule="evenodd" clip-rule="evenodd" fill="#EC1C24" points="40.4,52.2 40.7,52.9 40,53.7 40.4,52.2 			"/>
		</g>
	</g>
	<g>
		<g>
			<polygon fill-rule="evenodd" clip-rule="evenodd" fill="#00ADEE" points="40.4,52.2 40,53.7 39.9,52.6 40.4,52.2 			"/>
		</g>
	</g>
	<g>
		<g>
			<polygon fill-rule="evenodd" clip-rule="evenodd" fill="#EC1C24" points="40.4,52.2 39.9,52.6 39,52.3 40.4,52.2 			"/>
		</g>
	</g>
	<g>
		<g>
			<polygon fill-rule="evenodd" clip-rule="evenodd" fill="#00ADEE" points="40.4,52.2 39,52.3 39.9,51.8 40.4,52.2 			"/>
		</g>
	</g>
	<g>
		<g>
			<polygon fill-rule="evenodd" clip-rule="evenodd" fill="#EC1C24" points="40.4,52.2 39.9,51.8 39.9,50.8 40.4,52.2 			"/>
		</g>
	</g>
	<g>
		<g>
			<polygon fill-rule="evenodd" clip-rule="evenodd" fill="#00ADEE" points="40.4,52.2 40.6,51.6 39.9,50.8 40.4,52.2 			"/>
		</g>
	</g>
	<g>
		<g>
			<path fill-rule="evenodd" clip-rule="evenodd" fill="#FFFFFF" d="M54.5,19.7c0-0.1-0.1-0.2-0.2-0.1c-0.1,0.1-0.1,0.2-0.1,0.4
				c0,0.2-0.1,0.3-0.2,0.3c-1,0.7-1.9,1.2-2.8,1.8c-0.1,0-0.4,0.3-0.4,0.3c-0.1,0-0.1,0.1-0.1,0.2c0.3,0.7,0.3,0.8,0.6,1.5
				c0,0.1,0.1,0.1,0.2,0.1c0.1,0,0.4-0.1,0.5-0.1c1.1-0.2,2.1-0.4,3.3-0.6c0.1,0,0.2,0,0.3,0c0.1,0.1,0.2,0.4,0.4,0.3
				c0.1-0.1,0.1-0.1,0-0.3c-0.2-0.5-0.4-1.1-0.7-1.6c0-0.1-0.1-0.1-0.2-0.1c-0.2,0.1-0.1,0.2-0.1,0.4c0,0.1-0.1,0.2-0.2,0.2L54,22.6
				l0,0c-0.8,0.2-1.6,0.3-2.4,0.5c0.9-0.6,1.9-1.2,2.8-1.7c0.1-0.1,0.2-0.1,0.3,0c0.1,0.1,0.2,0.4,0.4,0.3c0.1,0,0.1-0.1,0.1-0.2
				C55,20.8,54.7,20.3,54.5,19.7L54.5,19.7z"/>
		</g>
		<g>
			<path fill="#140958" d="M51.4,24.3c-0.1,0-0.2-0.1-0.3-0.2l-0.6-1.5c0-0.1,0-0.2,0.2-0.3c0,0,0.4-0.2,0.4-0.3
				c0.4-0.2,0.7-0.5,1.1-0.7c0.5-0.3,1.1-0.7,1.7-1.1c0.1-0.1,0.2-0.1,0.2-0.2c-0.1-0.3,0-0.4,0.1-0.5c0.1,0,0.2,0,0.3,0
				c0.1,0,0.1,0.1,0.2,0.2l0,0l0.7,1.6c0,0.1,0,0.2,0,0.3c0.1,0,0.2,0.1,0.2,0.2l0.7,1.6c0,0.1,0.1,0.3-0.1,0.4l0,0
				c-0.3,0.1-0.4-0.1-0.5-0.2c0,0,0-0.1-0.1-0.1l0,0c0,0-0.2,0-0.2,0c-1,0.2-2,0.4-3.3,0.6l0,0c0,0-0.4,0.1-0.5,0.1
				C51.5,24.3,51.5,24.3,51.4,24.3z M50.8,22.5l0.6,1.5c0,0,0,0,0.1,0l0,0c0.1,0,0.4-0.1,0.5-0.1c1.3-0.3,2.3-0.4,3.3-0.6
				c0.1,0,0.3-0.1,0.4,0c0.1,0,0.1,0.1,0.1,0.2c0.1,0.1,0.1,0.1,0.1,0.1c0,0,0,0,0,0c0,0,0-0.1,0-0.1l-0.7-1.6c0,0,0,0-0.1,0
				c0,0,0,0,0,0c0,0,0,0,0,0.1c0,0.1,0,0.1,0,0.2c0,0.2-0.1,0.3-0.3,0.3l-0.6,0.2l0,0l-0.2,0c-0.7,0.2-1.5,0.3-2.2,0.5l-0.3,0.1
				L51.5,23l0.4-0.2c0.8-0.5,1.6-1,2.4-1.5c0.2-0.1,0.3-0.1,0.4,0c0.1,0,0.1,0.1,0.2,0.2c0,0,0,0.1,0.1,0.1c0,0,0,0,0,0
				c0,0,0,0,0-0.1l-0.7-1.7c0,0,0,0,0,0c-0.1,0,0,0.1,0,0.2l0,0c0,0.3-0.2,0.4-0.3,0.5c-0.6,0.4-1.2,0.8-1.7,1.1
				c-0.4,0.2-0.7,0.4-1.1,0.7C51.2,22.2,50.9,22.5,50.8,22.5C50.8,22.5,50.8,22.5,50.8,22.5z M54.6,21.4c0,0-0.1,0-0.1,0
				c-0.7,0.4-1.5,0.9-2.2,1.3c0.5-0.1,1.1-0.2,1.6-0.4l0.8-0.2c0.1,0,0.1-0.1,0.1-0.1c0,0,0-0.1,0-0.1c0-0.1,0-0.2,0-0.3
				c-0.1,0-0.2-0.1-0.2-0.2C54.7,21.5,54.7,21.5,54.6,21.4L54.6,21.4C54.6,21.5,54.6,21.4,54.6,21.4z"/>
		</g>
	</g>
	<g>
		<g>
			<path fill="#140958" d="M52.1,24.2l-0.2-0.6l0,0L52.1,24.2L52.1,24.2z M52.7,24l-0.2-0.6l0,0L52.7,24L52.7,24z M53.3,23.9
				l-0.2-0.6l0,0L53.3,23.9L53.3,23.9z M53.9,23.7l-0.2-0.6l0,0L53.9,23.7L53.9,23.7z M54.6,23.6L54.3,23l0,0L54.6,23.6L54.6,23.6z
				 M55.2,23.4L55,22.8l0,0L55.2,23.4L55.2,23.4z"/>
		</g>
	</g>
	<g>
		<g>
			<path fill="#140958" d="M51.6,23l-0.2-0.6l0,0L51.6,23L51.6,23z M52.2,22.7l-0.2-0.6l0,0L52.2,22.7L52.2,22.7z M52.7,22.3
				l-0.2-0.6l0,0L52.7,22.3L52.7,22.3z M53.3,22L53,21.4l0,0L53.3,22L53.3,22z M53.8,21.7l-0.2-0.6l0,0L53.8,21.7L53.8,21.7z
				 M54.4,21.4l-0.2-0.6l0,0L54.4,21.4L54.4,21.4z"/>
		</g>
	</g>
	<g>
		<g>
			<path fill-rule="evenodd" clip-rule="evenodd" fill="#FFFFFF" d="M53.1,17.3l0.6,1.1c0,0.1,0.1,0.2,0.1,0.2c0,0,0.1,0.1-0.1,0.2
				c-0.1,0-0.2,0-0.3-0.1c-0.1-0.1-0.2-0.1-0.4,0l-2.9,1.7c-0.2,0.1-0.2,0.2-0.1,0.4c0,0.1,0,0.2-0.1,0.2c-0.1,0.1-0.2,0-0.2-0.1
				l-0.1-0.2l-0.6-1.1c0-0.1-0.1-0.2-0.1-0.2c0-0.1,0-0.2,0.1-0.2c0.1,0,0.2,0,0.2,0.1c0.1,0.1,0.2,0.2,0.4,0.1l2.9-1.7
				c0.2-0.1,0.2-0.2,0.1-0.3c-0.1-0.1-0.1-0.2,0.1-0.3c0.1-0.1,0.2,0,0.2,0.1L53.1,17.3L53.1,17.3z"/>
		</g>
		<g>
			<path fill="#140958" d="M50.1,21.1c-0.1,0-0.2-0.1-0.3-0.1l-0.9-1.6c-0.1-0.1,0-0.3,0.1-0.4c0.1-0.1,0.3,0,0.4,0.1l0,0
				c0,0,0,0.1,0.1,0.1c0,0,0.1,0,0.1,0l2.9-1.7c0.1-0.1,0.1-0.1,0.1-0.2c0-0.1-0.1-0.2,0-0.2c0-0.1,0.1-0.1,0.1-0.2
				c0.1-0.1,0.3,0,0.4,0.1l0,0l0.9,1.6c0.1,0.1,0.1,0.3-0.1,0.4l0,0c-0.2,0.1-0.3,0-0.4-0.2c0,0-0.1-0.1-0.2,0l-2.9,1.7
				c-0.1,0.1-0.1,0.1-0.1,0.2l0,0c0.1,0.1,0,0.3-0.1,0.4l0,0C50.2,21.1,50.1,21.1,50.1,21.1z M49.2,19.2
				C49.2,19.2,49.2,19.2,49.2,19.2C49.1,19.2,49.1,19.3,49.2,19.2l0.9,1.6c0,0,0,0,0.1,0c0,0,0,0,0-0.1c-0.1-0.2-0.1-0.4,0.2-0.6
				l2.9-1.7c0.2-0.1,0.4-0.1,0.5,0.1c0,0.1,0.1,0.1,0.1,0.1c0,0,0,0,0-0.1l-0.9-1.5c0,0,0,0-0.1,0c0,0,0,0,0,0c0,0,0,0,0,0.1l0,0
				c0.1,0.2,0,0.4-0.2,0.5l-2.9,1.7c-0.1,0.1-0.2,0.1-0.3,0.1C49.4,19.4,49.3,19.4,49.2,19.2C49.2,19.2,49.2,19.2,49.2,19.2z"/>
		</g>
	</g>
	<g>
		<g>
			<path fill="#140958" d="M50.4,20.3L50,19.6l0,0L50.4,20.3L50.4,20.3z M50.9,20l-0.4-0.7l0,0L50.9,20L50.9,20z M51.5,19.7
				l-0.4-0.7l0,0L51.5,19.7L51.5,19.7z M52,19.3l-0.4-0.7l0,0L52,19.3L52,19.3z M52.6,19l-0.4-0.7l0,0L52.6,19L52.6,19z M53.1,18.7
				L52.7,18l0,0L53.1,18.7L53.1,18.7z"/>
		</g>
	</g>
	<g>
		<g>
			<path fill-rule="evenodd" clip-rule="evenodd" fill="#FFFFFF" d="M54.5,41l-0.6,1.1c0,0.1-0.1,0.2-0.1,0.2c0,0-0.1,0.1-0.2,0.1
				c-0.1-0.1-0.1-0.2,0-0.3c0.1-0.2,0-0.3-0.2-0.3l-2.9-1.6c-0.2-0.1-0.3,0-0.4,0.1c-0.1,0.1-0.2,0.1-0.2,0.1
				c-0.1-0.1-0.1-0.2-0.1-0.2l0.1-0.2l0.6-1.1c0-0.1,0.1-0.2,0.1-0.2c0-0.1,0.1-0.1,0.2-0.1c0.1,0,0.1,0.1,0.1,0.2
				c-0.1,0.1-0.1,0.3,0.1,0.4l2.9,1.6c0.2,0.1,0.2,0.1,0.4-0.1c0-0.1,0.1-0.2,0.3-0.1c0.1,0,0.1,0.1,0.1,0.2L54.5,41L54.5,41z"/>
		</g>
		<g>
			<path fill="#140958" d="M53.6,42.6c0,0-0.1,0-0.1,0l0,0c-0.1-0.1-0.2-0.3-0.1-0.4c0,0,0-0.1-0.1-0.2l-2.9-1.6
				c-0.1-0.1-0.2,0-0.2,0.1l0,0c-0.1,0.1-0.2,0.2-0.4,0.1l0,0c-0.2-0.1-0.2-0.3-0.1-0.4l0.9-1.6c0.1-0.1,0.3-0.2,0.4-0.1
				c0.1,0.1,0.2,0.2,0.1,0.4l0,0c0,0,0,0.1,0,0.1c0,0,0.1,0.1,0.1,0.1l2.9,1.6c0.1,0.1,0.1,0.1,0.2,0c0-0.1,0.1-0.1,0.2-0.2
				c0.1,0,0.2,0,0.2,0c0.1,0.1,0.2,0.2,0.1,0.4l0,0l-0.9,1.6C53.9,42.5,53.8,42.6,53.6,42.6z M53.6,42.3
				C53.6,42.3,53.7,42.3,53.6,42.3l0.9-1.6c0,0,0,0,0-0.1c0,0,0,0,0,0c0,0,0,0,0,0l0,0c-0.1,0.2-0.3,0.2-0.5,0.1l-2.9-1.6
				c-0.1-0.1-0.2-0.1-0.2-0.2c0-0.1,0-0.2,0-0.3c0,0,0-0.1,0-0.1c0,0-0.1,0-0.1,0l-0.9,1.6c0,0,0,0,0,0.1c0,0,0,0,0.1,0
				c0.1-0.2,0.3-0.3,0.6-0.1l2.9,1.6c0.2,0.1,0.3,0.3,0.2,0.5C53.6,42.3,53.6,42.3,53.6,42.3z"/>
		</g>
	</g>
	<g>
		<g>
			<path fill="#140958" d="M53.3,41.8L53.3,41.8l0.4-0.8l0,0L53.3,41.8z M52.7,41.5L52.7,41.5l0.4-0.8l0,0L52.7,41.5z M52.2,41.2
				L52.2,41.2l0.4-0.8l0,0L52.2,41.2z M51.6,40.9L51.6,40.9l0.4-0.8l0,0L51.6,40.9z M51.1,40.6L51.1,40.6l0.4-0.8l0,0L51.1,40.6z
				 M50.5,40.3L50.5,40.3l0.4-0.8l0,0L50.5,40.3z"/>
		</g>
	</g>
	<g>
		<g>
			<path fill-rule="evenodd" clip-rule="evenodd" fill="#FFFFFF" d="M45.6,9.9c-0.1-0.1-0.3-0.3-0.2-0.4c0,0,0.1-0.1,0.2,0
				c0.5,0.4,0.9,0.7,1.4,1c0.1,0.1,0.1,0.2,0.1,0.3c-0.2,0.2-0.3,0-0.4,0c-0.1,0-0.2,0.1-0.3,0.2l-1.7,2.2c-0.2,0.3-0.2,0.5,0,0.6
				c0.2,0.2,0.5,0.4,0.8-0.1c0.5-0.7,1.1-1.5,1.6-2.2c0.1-0.1,0.1-0.2,0.1-0.3c-0.2-0.2-0.2-0.3-0.1-0.4c0.1-0.1,0.2,0,0.3,0
				c0.4,0.3,0.6,0.5,1,0.7c0.1,0,0.1,0.1,0,0.2c-0.2,0.3-0.4-0.3-0.7,0.2l-1.6,2.2c-0.2,0.3-0.5,0.4-0.8,0.5c-0.3,0-0.8-0.2-1.1-0.4
				c-0.4-0.3-0.6-0.6-0.7-0.9c-0.1-0.3,0-0.6,0.3-1c0.5-0.7,1.1-1.4,1.6-2.2C45.6,10.1,45.6,10,45.6,9.9L45.6,9.9z"/>
		</g>
		<g>
			<path fill="#140958" d="M45.4,14.8c-0.4,0-0.8-0.2-1.2-0.5c-0.4-0.3-0.6-0.6-0.7-1c-0.1-0.4,0-0.7,0.3-1.1l1.6-2.2
				c0-0.1,0.1-0.1,0.1-0.2c0,0,0,0-0.1-0.1c-0.1-0.1-0.2-0.3-0.1-0.5l0,0c0,0,0.2-0.1,0.3-0.1l0,0l1.4,1c0.1,0.1,0.2,0.1,0.2,0.2
				c0.1,0,0.2,0,0.3,0.1l1,0.7c0,0,0.1,0.1,0.1,0.1c0,0.1,0,0.2,0,0.3l0,0c-0.2,0.2-0.3,0.1-0.4,0.1c-0.1,0-0.1-0.1-0.2,0.1
				l-1.6,2.2C46.1,14.6,45.8,14.7,45.4,14.8C45.4,14.8,45.4,14.8,45.4,14.8z M45.6,9.6c0,0,0,0,0.1,0.1c0,0,0.1,0.1,0.1,0.2l0,0l0,0
				c0,0.1-0.1,0.2-0.1,0.3L44,12.4c-0.2,0.3-0.3,0.6-0.2,0.9c0.1,0.3,0.3,0.6,0.6,0.8c0.3,0.2,0.8,0.4,1,0.4c0.3,0,0.5-0.2,0.7-0.4
				l1.6-2.2c0.2-0.3,0.4-0.2,0.5-0.2c0.1,0,0.1,0,0.1,0c0,0,0,0,0,0l0,0l-1-0.8c0,0,0,0-0.1,0c0,0,0,0,0,0l0,0c0,0,0,0,0.1,0.1l0,0
				c0.1,0.1,0.1,0.3-0.1,0.5l-1.6,2.2c-0.1,0.2-0.3,0.3-0.4,0.3c-0.2,0-0.4-0.1-0.6-0.2c-0.2-0.1-0.2-0.3-0.2-0.4
				c0-0.1,0.1-0.3,0.2-0.4l1.7-2.2c0,0,0,0,0,0c0.1-0.1,0.1-0.2,0.3-0.2l0,0l0,0c0.1,0,0.1,0,0.2,0.1c0.1,0,0.1,0,0.1,0
				c0,0,0,0,0-0.1l0,0L45.6,9.6C45.6,9.6,45.6,9.6,45.6,9.6z M46.6,11l-1.6,2.2c-0.1,0.1-0.1,0.2-0.1,0.3c0,0,0,0.1,0.1,0.2
				c0.1,0.1,0.3,0.2,0.4,0.2c0.1,0,0.2-0.1,0.2-0.2l1.6-2.2c0-0.1,0.1-0.1,0.1-0.2c-0.1-0.1-0.2-0.2-0.2-0.3c-0.1,0-0.2,0-0.2-0.1
				c0,0,0,0-0.1,0C46.7,10.9,46.7,10.9,46.6,11C46.6,11,46.6,11,46.6,11z"/>
		</g>
	</g>
	<g>
		<g>
			<path fill="#140958" d="M44.6,13.6L44,13.2l0,0L44.6,13.6L44.6,13.6z M45,13.1l-0.7-0.5l0,0L45,13.1L45,13.1z M45.4,12.6
				l-0.7-0.5l0,0L45.4,12.6L45.4,12.6z M45.8,12.1l-0.7-0.5l0,0L45.8,12.1L45.8,12.1z M46.2,11.6l-0.7-0.5l0,0L46.2,11.6L46.2,11.6z
				 M46.5,11.1l-0.7-0.5l0,0L46.5,11.1L46.5,11.1z"/>
		</g>
	</g>
	<g>
		<g>
			<path fill="#140958" d="M45.9,14.6l-0.3-0.2l0,0L45.9,14.6L45.9,14.6z M46.4,14.1l-0.3-0.2l0,0L46.4,14.1L46.4,14.1z M46.8,13.6
				l-0.3-0.2l0,0L46.8,13.6L46.8,13.6z M47.2,13.1l-0.3-0.2l0,0L47.2,13.1L47.2,13.1z M47.5,12.6l-0.3-0.2l0,0L47.5,12.6L47.5,12.6z
				 M47.9,12.1l-0.3-0.2l0,0L47.9,12.1L47.9,12.1z"/>
		</g>
	</g>
	<g>
		<g>
			<path fill-rule="evenodd" clip-rule="evenodd" fill="#FFFFFF" d="M51.8,25.7c0-0.1,0-0.1,0.1-0.2c0.2-0.1,0.2,0.2,0.3,0.3
				c0.1,0.1,0.2,0.1,0.3,0c1.1-0.2,2.1-0.3,3.2-0.5c0.1,0,0.2,0,0.3-0.2c0-0.2,0-0.3,0.2-0.3c0.1,0,0.1,0,0.2,0.1l0.5,2.8
				c0,0.2-0.1,0.4-0.3,0.4c-0.4,0.1-0.5,0.1-0.9,0.2c-0.5,0-0.5-0.6,0-0.8c0.4-0.2,0.6-0.3,0.5-0.6L56,26.5l-1.3,0.2
				c0,0.2,0.1,0.3,0.1,0.5c0,0.1,0,0.2-0.1,0.2c-0.1,0-0.2,0-0.2,0c-0.1,0-0.2,0-0.2-0.1l-0.1-0.5l-1.5,0.2c0,0.2,0.1,0.4,0.1,0.6
				c0.1,0.3,0.4,0.3,0.7,0.3c0.3,0,0.4,0.2,0.4,0.4c0,0.1,0,0.2-0.3,0.4l-0.9,0.1c-0.1,0-0.4,0-0.4-0.3C52.1,27.6,52,26.7,51.8,25.7
				L51.8,25.7z"/>
		</g>
		<g>
			<path fill="#140958" d="M52.7,29c-0.2,0-0.5-0.1-0.5-0.4l-0.5-2.9l0,0c0-0.1,0-0.2,0.2-0.3c0.3-0.1,0.4,0.1,0.4,0.2
				c0,0,0,0.1,0,0.1c0,0,0.1,0,0.2,0l3.2-0.5c0,0,0,0,0.1,0c0.1,0,0.1,0,0.1-0.1c0-0.2,0-0.4,0.3-0.5l0,0l0,0c0.1,0,0.2,0.1,0.3,0.2
				l0,0l0.5,2.8c0,0.3-0.1,0.5-0.4,0.6c-0.2,0-0.4,0.1-0.6,0.1c-0.1,0-0.2,0-0.4,0.1c-0.3,0-0.5-0.2-0.5-0.4c0-0.2,0.1-0.6,0.5-0.7
				c0.4-0.2,0.5-0.3,0.4-0.4l-0.1-0.4l-1,0.2l0.1,0.4c0,0.2-0.1,0.3-0.2,0.3l0,0l-0.2,0c-0.2,0-0.3-0.1-0.3-0.2l0,0L54,27l-1.2,0.2
				l0.1,0.5c0.1,0.1,0.2,0.2,0.5,0.2l0.1,0c0.4,0,0.5,0.3,0.6,0.5l0,0l0,0c0,0,0,0,0,0c0,0.1-0.1,0.3-0.4,0.4l0,0L52.7,29
				C52.7,29,52.7,29,52.7,29z M52,25.7l0.5,2.9c0,0.2,0.3,0.2,0.3,0.2l0.9-0.1c0.2-0.1,0.2-0.1,0.2-0.2c0,0,0,0,0,0
				c-0.1-0.2-0.1-0.3-0.3-0.3l-0.1,0c-0.3,0-0.6,0-0.8-0.4l0,0L52.5,27l1.8-0.3l0.1,0.6c0,0,0,0,0.1,0l0.2,0c0,0,0,0,0-0.1l-0.1-0.6
				l1.6-0.3l0.1,0.6c0.1,0.4-0.2,0.6-0.6,0.7l0,0c-0.2,0.1-0.3,0.2-0.3,0.4c0,0.1,0.1,0.2,0.2,0.2c0.1,0,0.3,0,0.4-0.1
				c0.2,0,0.3,0,0.6-0.1c0.1,0,0.2-0.2,0.2-0.3L56.2,25c0,0,0,0,0,0c0,0,0,0,0,0c0,0,0,0,0,0.2l0,0c0,0.2-0.2,0.2-0.3,0.3
				c0,0,0,0,0,0L52.6,26c-0.1,0-0.3,0-0.4-0.1l0,0C52.1,25.9,52.1,25.8,52,25.7C52,25.7,52,25.7,52,25.7C52,25.7,52,25.7,52,25.7
				C52,25.7,52,25.7,52,25.7z"/>
		</g>
	</g>
	<g>
		<g>
			<path fill="#140958" d="M53,28.9L53,28.4l0,0L53,28.9L53,28.9z M53.7,28.8l-0.1-0.4l0,0L53.7,28.8L53.7,28.8z M55.5,28.4L55.5,28
				l0,0L55.5,28.4L55.5,28.4z M56.2,28.3l-0.1-0.4l0,0L56.2,28.3L56.2,28.3z M52.8,27.2l-0.1-0.8l0,0L52.8,27.2L52.8,27.2z M53.4,27
				l-0.1-0.8l0,0L53.4,27L53.4,27z M54,26.9l-0.1-0.8l0,0L54,26.9L54,26.9z M54.6,26.8L54.5,26l0,0L54.6,26.8L54.6,26.8z M55.3,26.7
				l-0.1-0.8l0,0L55.3,26.7L55.3,26.7z M55.9,26.6l-0.1-0.8l0,0L55.9,26.6L55.9,26.6z"/>
		</g>
	</g>
	<g>
		<g>
			<path fill-rule="evenodd" clip-rule="evenodd" fill="#FFFFFF" d="M52.4,30.1c0-0.1,0.1-0.2,0.2-0.2c0.1,0,0.2,0.1,0.2,0.3
				c0.1,0.2,0.2,0.2,0.3,0.2c1.1,0,2.1,0,3.2,0c0.1,0,0.3,0,0.3-0.2c0.1-0.2,0.1-0.3,0.2-0.3c0.1,0,0.1,0.1,0.1,0.1l0,1.9
				c0,0.5-0.1,0.8-0.4,1.1c-0.3,0.3-0.6,0.4-1,0.4c-0.2,0-0.4,0-0.5-0.1c-0.1-0.1-0.3-0.3-0.4-0.5l-1.6,0.5c-0.1,0-0.2,0-0.3,0.1
				c-0.1,0.1,0,0.4-0.3,0.4c-0.1,0-0.2-0.1-0.2-0.2l0-1.1l2.1-0.6l0-0.3c-0.4,0-1,0-1.4,0c-0.2,0-0.2,0-0.3,0.1
				c-0.1,0.1,0,0.3-0.2,0.4c-0.1,0-0.1,0-0.2-0.1C52.4,31.3,52.4,30.7,52.4,30.1L52.4,30.1z M56.3,31.5l-1.3,0
				c0,0.3,0.1,0.5,0.2,0.6c0.1,0.1,0.3,0.1,0.5,0.1c0.2,0,0.3,0,0.4-0.1C56.3,32,56.3,31.8,56.3,31.5L56.3,31.5z"/>
		</g>
		<g>
			<path fill="#140958" d="M52.6,33.9C52.6,33.9,52.6,33.9,52.6,33.9c-0.2,0-0.3-0.2-0.3-0.4l0-1.2l2.1-0.6l0-0.1l-1.3,0
				c-0.1,0-0.1,0-0.2,0c0,0,0,0.1,0,0.1c0,0.1-0.1,0.3-0.3,0.3l0,0l0,0c-0.1,0-0.2-0.1-0.3-0.2l0,0l0-1.8l0,0c0-0.2,0.2-0.3,0.3-0.3
				l0,0l0,0c0.2,0,0.3,0.2,0.3,0.4c0,0.1,0,0.1,0.1,0.1c0,0,0.1,0,0.1,0l3.2,0c0.1,0,0.2,0,0.2,0l0,0c0,0,0,0,0-0.1
				c0-0.1,0.1-0.3,0.3-0.3l0,0c0.1,0,0.2,0.1,0.2,0.2l0,0l0,0l0,1.9c0,0.5-0.1,0.9-0.4,1.2c-0.3,0.3-0.6,0.5-1.1,0.5
				c-0.2,0-0.4,0-0.6-0.1c-0.1-0.1-0.3-0.2-0.4-0.4l-1.7,0.5c0,0,0,0,0,0.1C52.9,33.7,52.8,33.9,52.6,33.9z M52.6,32.5l0,1
				c0,0,0,0.1,0,0.1c0,0,0,0,0,0c0,0,0-0.1,0-0.1c0-0.1,0-0.2,0.1-0.2l0,0l0.3-0.1l1.7-0.5l0.1,0.1c0.1,0.2,0.3,0.4,0.4,0.4
				c0.1,0.1,0.3,0.1,0.5,0.1c0.4,0,0.6-0.1,0.9-0.4c0.2-0.2,0.3-0.6,0.3-1l0-1.8c0,0,0,0,0,0c0,0,0,0,0,0c0,0,0,0.1,0,0.1
				c0,0,0,0,0,0.1c0,0.2-0.2,0.3-0.4,0.3c0,0,0,0,0,0l-3.2,0c0,0,0,0-0.1,0c-0.1,0-0.3,0-0.4-0.2l0,0c0-0.1,0-0.1-0.1-0.1
				c0,0,0,0,0,0c0,0,0,0,0,0l0,1.7c0,0,0,0,0,0c0,0,0,0,0-0.1c0-0.1,0-0.1,0.1-0.2l0,0c0.1-0.1,0.2-0.1,0.4-0.1l1.5,0l0,0.5
				L52.6,32.5z M55.7,32.3c-0.3,0-0.4,0-0.6-0.1c-0.1-0.1-0.2-0.3-0.2-0.7l0-0.1l1.5,0l0,0.1c0,0.4-0.1,0.6-0.2,0.7
				C56.1,32.3,55.9,32.3,55.7,32.3C55.7,32.3,55.7,32.3,55.7,32.3z M55.2,31.7c0,0.2,0.1,0.3,0.1,0.3c0.1,0,0.2,0.1,0.4,0.1
				c0.2,0,0.3,0,0.4-0.1c0,0,0.1-0.1,0.1-0.3L55.2,31.7z"/>
		</g>
	</g>
	<g>
		<g>
			<path fill="#140958" d="M55.6,33.4l0-0.8l0,0L55.6,33.4L55.6,33.4z M53.1,33.4l0-0.6l0,0L53.1,33.4L53.1,33.4z M56.3,33.3l0-0.6
				l0,0L56.3,33.3L56.3,33.3z M55,33.2l0-0.6l0,0L55,33.2L55,33.2z M53.7,33.1l0-0.6l0,0L53.7,33.1L53.7,33.1z M54.4,33l0-0.5l0,0
				L54.4,33L54.4,33z M53.1,31.6l0-0.8l0,0L53.1,31.6L53.1,31.6z M53.7,31.6l0-0.8l0,0L53.7,31.6L53.7,31.6z M54.4,31.6l0-0.8l0,0
				L54.4,31.6L54.4,31.6z M55,31.6l0-0.8l0,0L55,31.6L55,31.6z M55.6,31.6l0-0.8l0,0L55.6,31.6L55.6,31.6z M56.3,31.6l0-0.8l0,0
				L56.3,31.6L56.3,31.6z"/>
		</g>
	</g>
	<g>
		<g>
			<path fill-rule="evenodd" clip-rule="evenodd" fill="#FFFFFF" d="M52,34.9c0.4,0.1,0.7,0.1,1.1,0.2c0.2,0.1,0.3,0.2,0.3,0.4
				c0,0.1-0.1,0.3-0.3,0.3c-0.4,0-0.5,0-0.7,0.1c-0.1,0.1-0.2,0.2-0.2,0.3c0,0.1,0,0.2,0.1,0.3c0.1,0.1,0.2,0.1,0.3,0.2
				c0.1,0,0.2,0,0.4,0c0.1-0.1,0.4-0.2,0.7-0.5c0.4-0.3,0.7-0.5,1-0.6c0.2-0.1,0.5-0.1,0.7,0c0.3,0.1,0.6,0.2,0.7,0.4
				c0.2,0.2,0.2,0.5,0.2,0.8c0,0.1-0.1,0.3-0.2,0.4c-0.1,0.1-0.4,0.3-0.3,0.4c-0.1,0.2,0.4,0.1,0.3,0.5c0,0.2-0.1,0.3-0.3,0.3
				c-0.4-0.1-0.7-0.1-1.1-0.2c-0.2-0.1-0.3-0.1-0.3-0.3c0-0.1,0.1-0.3,0.4-0.3c0.3,0,0.8,0,0.8-0.4c0-0.1,0-0.2,0-0.3
				c0-0.1-0.1-0.1-0.2-0.1c-0.1,0-0.2,0-0.3,0c-0.1,0-0.3,0.2-0.4,0.3c-0.4,0.4-0.8,0.6-1.1,0.7c-0.3,0.1-0.5,0.1-0.8,0.1
				c-0.3-0.1-0.6-0.2-0.8-0.5c-0.2-0.3-0.3-0.5-0.2-0.9c0.1-0.4,0.5-0.6,0.5-0.7c0-0.1-0.1-0.1-0.2-0.2c-0.1-0.1-0.1-0.2-0.1-0.3
				C51.8,34.9,51.9,34.9,52,34.9L52,34.9z"/>
		</g>
		<g>
			<path fill="#140958" d="M55.6,38.2L54.5,38c-0.3-0.1-0.4-0.2-0.4-0.5l0,0l0,0c0-0.1,0.1-0.4,0.5-0.4l0,0c0.5,0,0.7-0.1,0.7-0.3
				c0-0.1,0-0.1,0-0.2c0,0-0.1-0.1-0.1-0.1c-0.1,0-0.2,0-0.3,0c-0.1,0-0.2,0.1-0.4,0.3c-0.5,0.4-0.8,0.7-1.1,0.8
				c-0.3,0.1-0.6,0.1-0.9,0.1c-0.4-0.1-0.7-0.2-0.9-0.5c-0.2-0.3-0.3-0.6-0.2-1c0.1-0.3,0.3-0.5,0.4-0.6c0,0,0,0,0.1-0.1
				c0,0,0,0,0,0c0,0-0.1,0-0.1-0.1c-0.1-0.1-0.2-0.3-0.1-0.5c0.1-0.2,0.2-0.3,0.4-0.3l0,0l1.1,0.2c0.3,0.1,0.4,0.3,0.4,0.5l0,0
				c0,0.2-0.2,0.4-0.4,0.4l0,0l-0.2,0c-0.2,0-0.4,0-0.5,0.1c-0.1,0-0.2,0.1-0.2,0.2c0,0.1,0,0.1,0,0.2c0,0.1,0.1,0.1,0.2,0.1
				c0.1,0,0.2,0,0.3,0c0.1,0,0.3-0.1,0.6-0.4c0.4-0.4,0.8-0.6,1-0.6c0.3-0.1,0.5-0.1,0.7-0.1c0.3,0.1,0.6,0.2,0.8,0.5
				c0.2,0.3,0.2,0.6,0.2,0.9c0,0.2-0.1,0.3-0.2,0.4c0,0.1-0.1,0.1-0.2,0.2c0,0-0.1,0.1-0.1,0.1c0,0,0,0,0,0c0.1,0.1,0.3,0.2,0.2,0.5
				C56,38.1,55.9,38.2,55.6,38.2L55.6,38.2z M54.4,37.6c0,0.1,0,0.2,0.2,0.2l1,0.2c0.2,0,0.2-0.1,0.2-0.2l0,0c0-0.1,0-0.1-0.1-0.2
				c-0.1,0-0.2-0.1-0.2-0.3c0-0.1,0.1-0.2,0.2-0.3c0.1,0,0.1-0.1,0.2-0.2c0.1-0.1,0.1-0.2,0.1-0.3c0-0.3,0-0.5-0.1-0.7
				c-0.1-0.2-0.4-0.3-0.6-0.4c-0.2,0-0.4,0-0.6,0c-0.2,0.1-0.5,0.3-0.9,0.6c-0.3,0.3-0.5,0.4-0.7,0.5c-0.2,0.1-0.3,0.1-0.4,0.1
				c-0.2,0-0.3-0.1-0.4-0.2c-0.1-0.1-0.1-0.3-0.1-0.4c0-0.2,0.1-0.3,0.3-0.4c0.1-0.1,0.3-0.1,0.6-0.1l0.1,0c0.1,0,0.1-0.1,0.2-0.2
				c0-0.1,0-0.2-0.2-0.2L52,35c-0.1,0-0.2,0.1-0.2,0.1l0,0c0,0.1,0,0.1,0,0.2l0,0c0,0,0,0,0,0c0.1,0,0.2,0.1,0.2,0.3
				c0,0.1-0.1,0.1-0.2,0.2c-0.1,0.1-0.3,0.3-0.3,0.5c-0.1,0.3,0,0.5,0.2,0.8c0.2,0.2,0.4,0.4,0.7,0.4c0.2,0,0.5,0,0.7-0.1
				c0.2-0.1,0.6-0.3,1-0.7c0.2-0.2,0.4-0.3,0.5-0.4c0.1-0.1,0.3-0.1,0.4-0.1c0.1,0,0.2,0.1,0.3,0.2c0.1,0.1,0.1,0.2,0.1,0.4
				c-0.1,0.4-0.7,0.5-0.9,0.5C54.5,37.4,54.4,37.5,54.4,37.6z"/>
		</g>
	</g>
	<g>
		<g>
			
				<rect x="52.3" y="35.8" transform="matrix(0.9831 0.1833 -0.1833 0.9831 7.5088 -8.9709)" fill="#140958" width="0" height="0.6"/>
		</g>
	</g>
	<g>
		<g>
			<path fill="#140958" d="M55.2,38.1L55.2,38.1l0-0.4l0,0L55.2,38.1z M54.5,38L54.5,38l0.1-0.5l0,0L54.5,38z M52.7,37.6L52.7,37.6
				l0.1-0.6l0,0L52.7,37.6z M53.3,37.6L53.3,37.6l0.1-0.6l0,0L53.3,37.6z M52,37.6L52,37.6l0.1-0.6l0,0L52,37.6z M54,37.1L54,37.1
				l0.1-0.8l0,0L54,37.1z M55.4,36.6L55.4,36.6l0.1-0.5l0,0L55.4,36.6z M54.8,36.5L54.8,36.5l0.1-0.6l0,0L54.8,36.5z M52.3,36
				L52.3,36l0.1-0.6l0,0L52.3,36z M53,35.8L53,35.8l0-0.4l0,0L53,35.8z"/>
		</g>
	</g>
	<g>
		<g>
			<path fill-rule="evenodd" clip-rule="evenodd" fill="#FFFFFF" d="M48.7,42c0.1-0.1,0.2,0,0.2,0c0.1,0.1,0,0.2-0.1,0.4
				c0,0.1,0.1,0.2,0.2,0.2l2.7,1.9c0.1-0.1,0.2-0.2,0.1-0.4c-0.2-0.2-0.8-0.7-0.5-1c0.1-0.1,0.2-0.2,0.5,0l0.9,0.6
				c0.1,0.1,0.1,0.2,0.1,0.3c-0.6,0.9-1.2,1.7-1.8,2.6c-0.1,0.1-0.2,0.2-0.3,0.1c-0.3-0.2-0.6-0.4-0.9-0.6c-0.1-0.1-0.2-0.2-0.1-0.4
				c0.3-0.4,0.8,0,1.1,0.1c0.1,0,0.2-0.1,0.3-0.2c-0.9-0.6-1.8-1.3-2.7-1.9c-0.1-0.1-0.2-0.1-0.3-0.1c-0.1,0.1-0.2,0.3-0.4,0.2
				c-0.1,0-0.1-0.1-0.1-0.2C48,43,48.3,42.6,48.7,42L48.7,42z"/>
		</g>
		<g>
			<path fill="#140958" d="M50.8,46.9c-0.1,0-0.1,0-0.2-0.1l-0.9-0.6c-0.2-0.1-0.3-0.4-0.2-0.5l0,0c0.2-0.4,0.6-0.2,0.9-0.1
				c0.1,0,0.2,0.1,0.3,0.1c0,0,0.1,0,0.1-0.1l-2.6-1.8c-0.1-0.1-0.1-0.1-0.2-0.1c0,0,0,0,0,0c-0.1,0.1-0.2,0.2-0.4,0.1
				c-0.1-0.1-0.2-0.2-0.1-0.3l0,0l1.1-1.6c0.2-0.2,0.4,0,0.4,0l0,0c0.1,0.2,0.1,0.3,0,0.4c0,0,0,0.1,0,0.1c0,0,0,0.1,0.1,0.1
				c0,0,0,0,0,0l2.6,1.8c0,0,0.1-0.1,0.1-0.1c0,0-0.1-0.1-0.1-0.2c-0.2-0.3-0.6-0.7-0.4-1c0.1-0.1,0.3-0.2,0.6,0l0.9,0.6
				c0.1,0,0.1,0.1,0.1,0.2c0,0,0,0.2,0,0.3l-1.8,2.6C51.1,46.8,51,46.8,50.8,46.9C50.9,46.9,50.9,46.9,50.8,46.9z M49.8,45.7
				c0,0.1,0,0.2,0.1,0.2l0.9,0.6c0,0,0,0,0.1,0c0,0,0.1,0,0.1,0l1.8-2.6c0,0,0-0.1,0-0.1l-0.9-0.6c-0.1,0-0.2-0.1-0.3,0
				c-0.1,0.2,0.2,0.5,0.3,0.7C51.9,44,52,44,52,44.1c0.1,0.2,0,0.4-0.1,0.5l-0.1,0.1l-0.1-0.1L49,42.8c0,0,0,0,0,0
				c-0.1-0.1-0.2-0.1-0.2-0.3l0,0l0,0c0-0.1,0-0.1,0.1-0.2c0-0.1,0-0.1,0-0.1c0,0,0,0,0,0c0,0,0,0,0,0l-1,1.5c0,0,0,0,0,0
				c0,0,0,0,0.1-0.1c0,0,0.1-0.1,0.1-0.1l0,0l0,0c0.1,0,0.3,0,0.4,0.1l2.8,1.9l-0.1,0.1c0,0,0,0,0,0c-0.1,0.1-0.2,0.2-0.3,0.2l0,0
				l0,0c-0.1,0-0.3-0.1-0.4-0.1C50.1,45.6,49.9,45.6,49.8,45.7z M52.7,44L52.7,44L52.7,44z"/>
		</g>
	</g>
	<g>
		<g>
			<path fill="#140958" d="M50.3,46.5L50.3,46.5l0.2-0.3l0,0L50.3,46.5z M49.8,46.1L49.8,46.1l0.2-0.3l0,0L49.8,46.1z M51,45.5
				L51,45.5l0.4-0.7l0,0L51,45.5z M50.4,45.2L50.4,45.2l0.4-0.7l0,0L50.4,45.2z M49.9,44.8L49.9,44.8l0.4-0.7l0,0L49.9,44.8z
				 M49.4,44.5L49.4,44.5l0.4-0.7l0,0L49.4,44.5z M51.9,44.1L51.9,44.1l0.2-0.3l0,0L51.9,44.1z M48.9,44.1L48.9,44.1l0.4-0.7l0,0
				L48.9,44.1z M48.4,43.7L48.4,43.7l0.4-0.7l0,0L48.4,43.7z M51.4,43.7L51.4,43.7l0.1-0.3l0,0L51.4,43.7z"/>
		</g>
	</g>
	<g>
		<g>
			<path fill-rule="evenodd" clip-rule="evenodd" fill="#FFFFFF" d="M46.3,15.8c0-0.1,0-0.1,0-0.2c0.1-0.2,0.3,0,0.4,0.1
				c0.1,0.1,0.2,0,0.3-0.1c0.8-0.7,1.6-1.4,2.5-2.1c0.1-0.1,0.2-0.2,0.2-0.2c0-0.2-0.2-0.3,0-0.4c0.1-0.1,0.2,0,0.2,0l0.9,1.1
				c-0.4,0.8-0.8,1.6-1.3,2.5c0.1,0,0.6-0.5,0.8-0.7c0.2-0.2,0.5-0.4,0.7-0.6c0.1-0.1,0.2-0.2,0.1-0.4c-0.1-0.1-0.1-0.3,0-0.3
				c0,0,0.1,0,0.2,0.1c0.3,0.3,0.6,0.6,0.8,1c0,0.1,0.1,0.1,0,0.2c-0.1,0.1-0.2,0.1-0.3-0.1c-0.1-0.1-0.2,0-0.4,0.1l-3,2.6l-0.6-0.7
				c0.5-1,1-1.9,1.5-2.9c-0.2,0.2-0.9,0.8-1,0.9c-0.2,0.2-0.5,0.4-0.7,0.6c-0.1,0.1-0.2,0.2-0.1,0.3c0.1,0.1,0.2,0.2,0,0.4
				c-0.1,0.1-0.2,0-0.2,0C46.8,16.4,46.6,16.1,46.3,15.8L46.3,15.8z"/>
		</g>
		<g>
			<path fill="#140958" d="M48.3,18.4l-0.8-0.9l0-0.1c0.4-0.7,0.7-1.4,1.1-2.1l0.1-0.2c-0.1,0.1-0.2,0.2-0.3,0.3l-0.9,0.8
				c-0.1,0.1-0.1,0.1-0.1,0.2l0,0c0.1,0.1,0.2,0.3,0,0.5l0,0c-0.1,0.1-0.3,0.1-0.4,0l0,0l-0.9-1c-0.1-0.1,0-0.3,0-0.4
				c0.2-0.2,0.4,0,0.5,0c0,0,0,0,0,0c0,0,0.1,0,0.2-0.1l2.5-2.1c0.1-0.1,0.1-0.1,0.1-0.1c0,0,0,0,0-0.1c-0.1-0.1-0.2-0.3,0-0.4l0,0
				c0.1,0,0.2-0.1,0.4,0l0,0l1,1.2l0,0.1c-0.3,0.6-0.6,1.1-0.9,1.7l-0.1,0.2c0,0,0.1-0.1,0.1-0.1c0.1-0.1,0.1-0.1,0.2-0.2l0.7-0.6
				c0.1-0.1,0.1-0.2,0.1-0.2c-0.1-0.1-0.1-0.2-0.1-0.3c0-0.1,0.1-0.1,0.2-0.2c0.1,0,0.3,0,0.4,0.1l0.8,1c0.1,0.1,0.1,0.3,0,0.4l0,0
				c-0.1,0.1-0.2,0.1-0.2,0.1h0c-0.1,0-0.2-0.1-0.3-0.2c-0.1,0-0.2,0.1-0.2,0.1L48.3,18.4z M47.9,17.5l0.5,0.5l2.9-2.5
				c0.3-0.3,0.5-0.1,0.5-0.1l0,0c0.1,0.1,0.1,0.1,0.1,0.1l0,0c0,0,0,0,0,0c0,0,0,0,0,0l-0.8-1c0,0,0,0-0.1,0c0,0,0,0,0,0
				c0,0,0,0,0.1,0.1l0,0c0.1,0.2,0,0.4-0.2,0.5l-0.7,0.6c0,0-0.1,0.1-0.2,0.2c-0.4,0.3-0.6,0.5-0.6,0.5l-0.2-0.2l0.4-0.7
				c0.3-0.6,0.6-1.1,0.9-1.7l-0.9-1c0,0,0,0,0,0c0,0,0,0,0,0.1c0,0.1,0.1,0.1,0.1,0.2c0,0.1-0.1,0.2-0.2,0.3l-2.5,2.1
				c-0.2,0.2-0.4,0.2-0.5,0.1l0,0c0,0,0,0-0.1,0c0,0-0.1-0.1-0.1-0.1c0,0,0,0,0,0c0,0,0,0,0,0l0.8,1c0,0,0,0,0.1,0c0,0,0,0-0.1-0.1
				l0-0.1c0-0.1,0-0.3,0.2-0.5l0.9-0.8c0.3-0.2,0.6-0.6,0.8-0.7l0.2,0.2l-0.4,0.8C48.6,16.1,48.2,16.8,47.9,17.5z M51.1,14.5
				C51.1,14.5,51.1,14.5,51.1,14.5C51.1,14.5,51.1,14.5,51.1,14.5z"/>
		</g>
	</g>
	<g>
		<g>
			<path fill="#140958" d="M47.5,16.1l-0.2-0.2l0,0L47.5,16.1L47.5,16.1z M48,15.7l-0.2-0.2l0,0L48,15.7L48,15.7z M48.4,15.3
				L48.2,15l0,0L48.4,15.3L48.4,15.3z M50,15.1l-0.8-0.9l0,0L50,15.1L50,15.1z M48.9,14.8l-0.2-0.2l0,0L48.9,14.8L48.9,14.8z
				 M50.3,14.5l-0.6-0.7l0,0L50.3,14.5L50.3,14.5z"/>
		</g>
	</g>
	<g>
		<g>
			<path fill="#140958" d="M48.9,17.8l-0.4-0.5l0,0L48.9,17.8L48.9,17.8z M49.4,17.4l-0.6-0.7l0,0L49.4,17.4L49.4,17.4z M49.9,16.9
				l-0.2-0.3l0,0L49.9,16.9L49.9,16.9z M50.4,16.5l-0.2-0.3l0,0L50.4,16.5L50.4,16.5z M50.8,16.1l-0.2-0.3l0,0L50.8,16.1L50.8,16.1z
				 M51.3,15.7l-0.2-0.3l0,0L51.3,15.7L51.3,15.7z"/>
		</g>
	</g>
	<g>
		<g>
			<path fill="#140958" d="M49.4,16.3L49.1,16l0,0L49.4,16.3L49.4,16.3z M49.7,15.7l-0.4-0.4l0,0L49.7,15.7L49.7,15.7z"/>
		</g>
	</g>
	<g>
		<g>
			<path fill-rule="evenodd" clip-rule="evenodd" fill="#FFFFFF" d="M11,23.7l0.4-0.8c0.4,0.2,0.7,0.4,0.9,0.7
				c0.2,0.3,0.2,0.6,0.2,1c-0.1,0.5-0.4,0.8-0.9,1c-0.5,0.2-1.1,0.2-1.9,0c-0.7-0.2-1.2-0.4-1.6-0.8c-0.3-0.4-0.5-0.7-0.4-1.1
				c0.1-0.3,0.2-0.5,0.5-0.6c0,0,0,0,0,0c0.1-0.1-0.1-0.2-0.2-0.2c-0.1-0.1-0.1-0.1-0.1-0.2c0-0.1,0.1-0.3,0.4-0.3
				c0.5,0.1,0.6,0.1,1,0.2c0.2,0.1,0.3,0.3,0.3,0.4c0,0.2-0.2,0.3-0.3,0.3c-0.5,0-0.8,0.1-0.9,0.3c0,0.2,0,0.3,0.3,0.4
				c0.2,0.1,0.7,0.2,1.3,0.3c0.7,0.2,1.2,0.2,1.4,0.2c0.2,0,0.3-0.1,0.4-0.3c0-0.1,0-0.2-0.1-0.3C11.6,24,11.3,23.8,11,23.7L11,23.7
				z"/>
		</g>
		<g>
			<path fill="#140958" d="M10.8,26c-0.3,0-0.6,0-1-0.1c-0.7-0.2-1.3-0.4-1.6-0.8c-0.4-0.4-0.5-0.8-0.4-1.2c0.1-0.3,0.2-0.5,0.5-0.7
				c0,0,0,0,0,0c0,0-0.1,0-0.1,0C8,23,8,22.9,8,22.8c0-0.2,0.2-0.5,0.5-0.5l0,0l1,0.2c0.3,0.1,0.4,0.3,0.4,0.5
				c0,0.2-0.3,0.5-0.5,0.5c-0.3,0-0.7,0-0.7,0.2c0,0.1,0,0.2,0.2,0.2c0.2,0.1,0.7,0.2,1.2,0.3c0.7,0.2,1.2,0.2,1.4,0.2
				c0.2,0,0.2-0.1,0.3-0.2c0-0.1,0-0.1-0.1-0.2c-0.1-0.1-0.4-0.3-0.7-0.4l-0.2,0l0.6-1l0.1,0c0.5,0.2,0.8,0.4,1,0.8
				c0.2,0.3,0.3,0.7,0.2,1.1c-0.1,0.5-0.4,0.9-1,1.1C11.4,25.9,11.1,26,10.8,26z M8.5,23.3L8.5,23.3L8.5,23.3
				c-0.3,0.2-0.5,0.4-0.5,0.6c-0.1,0.3,0,0.7,0.3,1c0.3,0.3,0.8,0.6,1.5,0.7c0.7,0.2,1.3,0.2,1.8,0c0.4-0.2,0.7-0.5,0.8-0.9
				c0.1-0.3,0-0.6-0.1-0.9c-0.2-0.3-0.4-0.5-0.8-0.6l-0.3,0.5c0.3,0.1,0.5,0.3,0.6,0.3c0.2,0.2,0.2,0.4,0.2,0.5
				c0,0.1-0.1,0.4-0.5,0.4c0,0,0,0,0,0c-0.3,0-0.9-0.1-1.4-0.2c-0.6-0.1-1.1-0.3-1.3-0.3c-0.3-0.1-0.4-0.3-0.3-0.5
				c0-0.5,0.8-0.5,1-0.5c0.1,0,0.2-0.1,0.2-0.2l0,0c0-0.1,0-0.2-0.2-0.3l-1-0.2c-0.1,0-0.2,0-0.2,0.2c0,0.1,0,0.1,0.1,0.1
				c0,0,0,0,0,0c0.1,0,0.2,0.1,0.2,0.2C8.6,23.2,8.6,23.2,8.5,23.3z"/>
		</g>
	</g>
	<g>
		<g>
			<path fill="#140958" d="M11.2,25.3L11.2,25.3l0.1-0.8l0,0L11.2,25.3z M10.5,25.3L10.5,25.3l0.1-0.8l0,0L10.5,25.3z M11.8,25.2
				L11.8,25.2l0.1-0.6l0,0L11.8,25.2z M9.9,25.2L9.9,25.2l0.1-0.8l0,0L9.9,25.2z M9.3,24.9L9.3,24.9l0.1-0.7l0,0L9.3,24.9z
				 M8.8,24.5L8.8,24.5l0.1-0.6l0,0L8.8,24.5z"/>
		</g>
	</g>
	<g>
		<g>
			<rect x="9.8" y="22.7" fill="#140958" width="0" height="0.3"/>
		</g>
	</g>
	<g>
		<g>
			<path fill="#140958" d="M12.2,23.7L12.2,23.7l0.1-0.5l0,0L12.2,23.7z M11.6,23.4L11.6,23.4l0.1-0.5l0,0L11.6,23.4z M9.1,23
				L9.1,23l0.1-0.5l0,0L9.1,23z"/>
		</g>
	</g>
	<g>
		<g>
			<path fill-rule="evenodd" clip-rule="evenodd" fill="#FFFFFF" d="M13,28.4c0.1,0,0.2,0.1,0.3,0.2c0.1,0.1,0.1,0.3,0.1,0.4
				c0,0.2-0.1,0.3-0.1,0.4c-0.1,0.1-0.2,0.2-0.3,0.1c-0.1,0-0.2-0.1-0.3-0.2c-0.1-0.1-0.1-0.3-0.1-0.4c0-0.2,0.1-0.3,0.1-0.4
				C12.8,28.5,12.9,28.4,13,28.4L13,28.4z"/>
		</g>
		<g>
			<path fill="#140958" d="M13,29.7C13,29.7,13,29.7,13,29.7c-0.2,0-0.3-0.1-0.4-0.2c-0.1-0.1-0.1-0.3-0.1-0.5
				c0-0.2,0.1-0.4,0.2-0.5c0.1-0.1,0.3-0.2,0.4-0.2c0.2,0,0.3,0.1,0.4,0.2c0.1,0.1,0.1,0.3,0.1,0.5c0,0.2-0.1,0.4-0.2,0.5
				C13.3,29.7,13.2,29.7,13,29.7z M13,28.6c-0.1,0-0.1,0-0.2,0.1c-0.1,0.1-0.1,0.2-0.1,0.4c0,0.2,0,0.3,0.1,0.4
				c0.1,0.1,0.1,0.1,0.2,0.1c0.1,0,0.2,0,0.2-0.1c0.1-0.1,0.1-0.2,0.1-0.4c0-0.2,0-0.3-0.1-0.4C13.2,28.6,13.1,28.6,13,28.6L13,28.6
				C13,28.6,13,28.6,13,28.6z"/>
		</g>
	</g>
	<g>
		<g>
			
				<rect x="12.7" y="28.7" transform="matrix(7.325407e-002 0.9973 -0.9973 7.325407e-002 40.6778 13.6588)" fill="#140958" width="0.7" height="0"/>
		</g>
	</g>
	<g>
		<g>
			<path fill-rule="evenodd" clip-rule="evenodd" fill="#FFFFFF" d="M11.8,29.1c0,0.5-0.2,0.9-0.6,1.3c-0.4,0.3-1,0.5-1.7,0.5
				c-0.7,0-1.3-0.1-1.7-0.4C7.3,30.1,7,29.7,7,29.2c0-0.5,0.2-0.9,0.6-1.3c0.4-0.3,1-0.5,1.7-0.5c0.7,0,1.3,0.1,1.7,0.4
				C11.5,28.1,11.7,28.5,11.8,29.1L11.8,29.1z M11.1,29.1c0-0.1,0-0.2-0.1-0.3c-0.1-0.1-0.3-0.1-0.5-0.1c-0.2,0-0.6,0-1.1,0
				c-0.5,0-0.8,0-1.1,0.1c-0.3,0-0.4,0.1-0.5,0.1c-0.1,0.1-0.1,0.1-0.1,0.3c0,0.1,0,0.2,0.1,0.2c0.1,0.1,0.3,0.1,0.5,0.1
				c0.2,0,0.6,0,1.1,0c0.5,0,0.8,0,1.1-0.1c0.3,0,0.4-0.1,0.5-0.1C11.1,29.3,11.1,29.2,11.1,29.1L11.1,29.1z"/>
		</g>
		<g>
			<path fill="#140958" d="M9.3,31c-0.7,0-1.2-0.1-1.7-0.4c-0.5-0.3-0.7-0.8-0.7-1.3c0-0.6,0.2-1,0.7-1.4c0.4-0.3,1-0.5,1.8-0.5
				c0.7,0,1.4,0.1,1.8,0.4c0.5,0.3,0.7,0.8,0.7,1.3l0,0c0,0.6-0.2,1-0.7,1.4c-0.4,0.3-1,0.5-1.8,0.5C9.4,31,9.4,31,9.3,31z
				 M9.5,27.5c0,0-0.1,0-0.1,0c-0.7,0-1.2,0.2-1.6,0.5c-0.4,0.3-0.6,0.7-0.6,1.2c0,0.5,0.2,0.9,0.6,1.1c0.4,0.3,1,0.4,1.7,0.4
				c0.7,0,1.2-0.2,1.6-0.5c0.4-0.3,0.6-0.7,0.6-1.2l0,0c0-0.5-0.2-0.8-0.6-1.1C10.6,27.7,10.1,27.5,9.5,27.5z M8.8,29.7
				c-0.2,0-0.4,0-0.5,0c-0.3,0-0.5-0.1-0.6-0.1c-0.1-0.1-0.2-0.2-0.2-0.4c0-0.2,0.1-0.3,0.2-0.4c0.1-0.1,0.3-0.1,0.6-0.2
				c0.3,0,0.6-0.1,1.1-0.1c0.5,0,0.8,0,1.1,0c0.3,0,0.5,0.1,0.6,0.1c0.1,0.1,0.2,0.2,0.2,0.4v0c0,0.2-0.1,0.3-0.2,0.4
				c-0.1,0.1-0.3,0.1-0.6,0.2c-0.3,0-0.6,0.1-1.1,0.1C9.2,29.7,9,29.7,8.8,29.7z M9.9,28.8c-0.2,0-0.4,0-0.6,0c-0.5,0-0.8,0-1.1,0.1
				c-0.2,0-0.4,0.1-0.5,0.1c0,0-0.1,0.1-0.1,0.1c0,0.1,0,0.1,0.1,0.1c0.1,0,0.2,0.1,0.5,0.1c0.3,0,0.6,0,1.1,0c0.5,0,0.8,0,1.1-0.1
				c0.2,0,0.4-0.1,0.5-0.1c0,0,0.1-0.1,0.1-0.1l0,0c0-0.1,0-0.1-0.1-0.1c-0.1,0-0.2-0.1-0.5-0.1C10.3,28.8,10.1,28.8,9.9,28.8z"/>
		</g>
	</g>
	<g>
		<g>
			<path fill="#140958" d="M7.8,28.5l0-0.6l0,0L7.8,28.5L7.8,28.5z M10.9,28.4l0-0.7l0,0L10.9,28.4L10.9,28.4z M8.4,28.3l0-0.8l0,0
				L8.4,28.3L8.4,28.3z M10.3,28.2l0-0.8l0,0L10.3,28.2L10.3,28.2z M9,28.2l0-0.8l0,0L9,28.2L9,28.2z M9.7,28.2l0-0.8l0,0L9.7,28.2
				L9.7,28.2z"/>
		</g>
	</g>
	<g>
		<g>
			<path fill="#140958" d="M9.1,30.4l0-0.8l0,0L9.1,30.4L9.1,30.4z M9.7,30.4l0-0.8l0,0L9.7,30.4L9.7,30.4z M8.5,30.3l0-0.8l0,0
				L8.5,30.3L8.5,30.3z M10.3,30.2l0-0.8l0,0L10.3,30.2L10.3,30.2z M7.8,30l0-0.6l0,0L7.8,30L7.8,30z M11,29.9l0-0.6l0,0L11,29.9
				L11,29.9z"/>
		</g>
	</g>
	<g>
		<g>
			<path fill-rule="evenodd" clip-rule="evenodd" fill="#FFFFFF" d="M7.5,34.5l-0.2-1.2c0-0.1,0-0.2-0.1-0.3c0,0,0-0.2,0.1-0.2
				c0.1,0,0.2,0.1,0.2,0.2c0,0.2,0.2,0.2,0.3,0.2l3.2-0.6c0.2,0,0.3-0.2,0.2-0.3c0-0.1,0.1-0.2,0.1-0.2c0.1,0,0.2,0.1,0.2,0.1
				l0.1,0.3l0.2,1.2c0,0.1,0,0.1,0,0.2c0,0.1,0,0.2-0.1,0.2c-0.1,0-0.2-0.1-0.2-0.1c0-0.1-0.1-0.2-0.3-0.1L10,34l0.1,0.8l1.4-0.3
				c0.2,0,0.2-0.1,0.2-0.2c0-0.1,0-0.2,0.1-0.2c0.1,0,0.2,0.1,0.2,0.1l0,0.2l0.2,1.2c0,0.1,0,0.2,0.1,0.3c0,0.1,0,0.2-0.1,0.2
				c-0.1,0-0.2,0-0.2-0.1c0-0.1-0.1-0.3-0.3-0.2l-3.2,0.6c-0.2,0-0.2,0.1-0.2,0.3c0,0.1,0,0.2-0.1,0.2c-0.1,0-0.2,0-0.2-0.1
				l-0.1-0.3l-0.2-1.2c0-0.1,0-0.1,0-0.2c0,0,0-0.2,0.1-0.2C7.9,34.8,7.9,35,8,35c0.1,0.1,0.2,0.1,0.3,0.1l1.2-0.2l-0.1-0.8
				l-1.2,0.2c-0.2,0-0.2,0.1-0.2,0.2c0,0.1,0,0.2-0.2,0.3c-0.1,0-0.2,0-0.2-0.1L7.5,34.5L7.5,34.5z"/>
		</g>
		<g>
			<path fill="#140958" d="M8.1,37c-0.1,0-0.2-0.1-0.3-0.2l0,0l-0.3-1.7c0-0.1,0-0.1,0-0.2c0,0-0.1-0.1-0.1-0.2l0,0L7.1,33
				c0-0.1,0-0.3,0.2-0.4l0,0c0.2,0,0.3,0.1,0.3,0.3c0,0,0,0.1,0.2,0.1l3.2-0.6c0.1,0,0.1-0.1,0.1-0.2l0,0c0-0.2,0.1-0.3,0.2-0.3l0,0
				c0.2,0,0.3,0.1,0.4,0.2l0.3,1.7c0,0.1,0,0.1,0,0.2c0.1,0,0.1,0.1,0.1,0.2l0.3,1.7c0,0.1-0.1,0.3-0.3,0.3c-0.2,0-0.3-0.1-0.3-0.2
				l0,0c0,0,0-0.1-0.1-0.1c0,0-0.1,0-0.1,0l-3.2,0.6c-0.1,0-0.1,0-0.1,0.1c0,0.1,0,0.2,0,0.2C8.3,36.9,8.2,36.9,8.1,37
				C8.1,37,8.1,37,8.1,37z M8,36.7C8.1,36.7,8.1,36.7,8,36.7C8.1,36.7,8.1,36.7,8,36.7C8.1,36.7,8.1,36.7,8,36.7L8,36.7L8,36.7
				c0.1-0.3,0.1-0.4,0.4-0.5l3.2-0.6c0.1,0,0.2,0,0.3,0c0.1,0.1,0.1,0.1,0.2,0.3c0,0,0,0,0.1,0c0,0,0,0,0,0l-0.3-1.7c0,0,0,0,0,0
				c0,0,0,0.1,0,0.1c0,0.1-0.1,0.3-0.3,0.3L10,34.9l-0.2-1l1.5-0.3c0.2,0,0.4,0,0.5,0.2c0,0,0,0,0.1,0c0,0,0,0,0,0l-0.3-1.7
				c0,0,0,0,0,0c0,0,0,0,0,0.1c0,0.2-0.1,0.4-0.3,0.5l-3.2,0.6c-0.2,0.1-0.4,0-0.5-0.3c0-0.1,0-0.1-0.1-0.1c0,0,0,0,0,0l0.3,1.7
				c0,0,0,0,0,0c0,0,0,0,0-0.1c0,0,0,0,0-0.1c0-0.2,0.2-0.3,0.3-0.3L9.4,34l0.2,1l-1.3,0.2c-0.2,0-0.3,0-0.4-0.1c0,0,0,0,0-0.1
				c0-0.1,0-0.1-0.1-0.1c0,0,0,0,0,0L8,36.7z M8,34.8c0.1,0,0.1,0.1,0.1,0.1c0,0,0,0,0,0c0,0,0.1,0,0.2,0l1.1-0.2l-0.1-0.5l-1.1,0.2
				c-0.1,0-0.1,0-0.1,0.1c0,0,0,0,0,0C8,34.6,8,34.7,8,34.8z M10.1,34.1l0.1,0.5l1.2-0.2c0.1,0,0.1-0.1,0.1-0.1c0-0.1,0-0.1,0.1-0.2
				c-0.1,0-0.1-0.1-0.1-0.1c0,0,0-0.1-0.2-0.1L10.1,34.1z"/>
		</g>
	</g>
	<g>
		<g>
			<path fill="#140958" d="M8.5,35.9l-0.2-0.8l0,0L8.5,35.9L8.5,35.9z M9.2,35.8L9,35l0,0L9.2,35.8L9.2,35.8z M9.8,35.7l-0.2-0.8
				l0,0L9.8,35.7L9.8,35.7z M10.4,35.6l-0.2-0.8l0,0L10.4,35.6L10.4,35.6z M11,35.5l-0.2-0.8l0,0L11,35.5L11,35.5z M11.6,35.4
				l-0.2-0.8l0,0L11.6,35.4L11.6,35.4z M8.2,34L8,33.2l0,0L8.2,34L8.2,34z M8.8,33.9l-0.2-0.8l0,0L8.8,33.9L8.8,33.9z M9.4,33.8
				L9.3,33l0,0L9.4,33.8L9.4,33.8z M10,33.7l-0.2-0.8l0,0L10,33.7L10,33.7z M10.6,33.5l-0.2-0.8l0,0L10.6,33.5L10.6,33.5z
				 M11.3,33.4l-0.2-0.8l0,0L11.3,33.4L11.3,33.4z"/>
		</g>
	</g>
	<g>
		<g>
			<path fill-rule="evenodd" clip-rule="evenodd" fill="#FFFFFF" d="M10.2,42.2l-0.6-1.1c0-0.1-0.1-0.2-0.1-0.2c0,0-0.1-0.1,0.1-0.2
				c0.1,0,0.2,0,0.3,0.1c0.1,0.1,0.2,0.1,0.4,0.1l2.9-1.5c0.2-0.1,0.2-0.2,0.1-0.4c0-0.1,0-0.2,0.1-0.2c0.1-0.1,0.2,0,0.2,0.1
				l0.1,0.2l0.6,1.1c0,0.1,0.1,0.2,0.1,0.2c0,0.1,0,0.2-0.1,0.2c-0.1,0-0.2,0-0.2-0.1c-0.1-0.1-0.2-0.2-0.4-0.1l-2.9,1.5
				c-0.2,0.1-0.2,0.2-0.2,0.3c0,0.1,0.1,0.2-0.1,0.3c-0.1,0-0.2,0-0.2-0.1L10.2,42.2L10.2,42.2z"/>
		</g>
		<g>
			<path fill="#140958" d="M10.4,42.7c-0.1,0-0.2-0.1-0.3-0.1l0,0l-0.8-1.6c-0.1-0.1-0.1-0.3,0.1-0.4l0,0c0.2-0.1,0.3,0,0.4,0.2
				c0,0,0.1,0.1,0.2,0l2.9-1.5c0.1-0.1,0.1-0.1,0.1-0.2l0,0c0-0.1,0-0.3,0.1-0.4l0,0c0.2-0.1,0.3,0,0.4,0.1l0.8,1.6
				c0.1,0.1,0,0.3-0.1,0.4c-0.1,0.1-0.3,0-0.4-0.1l0,0c0,0,0-0.1-0.1-0.1c0,0-0.1,0-0.1,0l-3,1.5c-0.1,0-0.1,0.1-0.1,0.2
				c0,0.1,0,0.2,0,0.2c0,0.1-0.1,0.1-0.2,0.2C10.5,42.7,10.5,42.7,10.4,42.7z M10.4,42.4C10.4,42.4,10.4,42.4,10.4,42.4
				C10.5,42.4,10.5,42.4,10.4,42.4C10.5,42.4,10.5,42.3,10.4,42.4L10.4,42.4c0-0.3,0-0.5,0.3-0.6l2.9-1.5c0.1-0.1,0.2-0.1,0.3,0
				c0.1,0,0.2,0.1,0.2,0.2c0,0,0,0,0.1,0c0,0,0,0,0,0l-0.8-1.6c0,0,0,0-0.1,0c0,0,0,0,0,0.1c0.1,0.2,0,0.4-0.2,0.5l-2.9,1.5
				C10,41.1,9.8,41,9.7,40.8c0-0.1-0.1-0.1-0.1-0.1c0,0,0,0,0,0.1L10.4,42.4z"/>
		</g>
	</g>
	<g>
		<g>
			<path fill="#140958" d="M10.6,41.5l-0.4-0.7l0,0L10.6,41.5L10.6,41.5z M11.2,41.3l-0.4-0.7l0,0L11.2,41.3L11.2,41.3z M11.7,41
				l-0.4-0.7l0,0L11.7,41L11.7,41z M12.3,40.7L11.9,40l0,0L12.3,40.7L12.3,40.7z M12.8,40.4l-0.4-0.7l0,0L12.8,40.4L12.8,40.4z
				 M13.4,40.1L13,39.4l0,0L13.4,40.1L13.4,40.1z"/>
		</g>
	</g>
	<g>
		<g>
			<path fill-rule="evenodd" clip-rule="evenodd" fill="#FFFFFF" d="M16.8,41.6c0.1-0.1,0.2-0.1,0.3-0.1c0.1,0,0.2,0.1,0.4,0.3
				c0.1,0.1,0.2,0.3,0.2,0.4c0,0.1,0,0.2-0.1,0.3c-0.1,0.1-0.2,0.1-0.3,0.1c-0.1,0-0.2-0.1-0.4-0.3c-0.1-0.1-0.2-0.3-0.2-0.4
				C16.6,41.8,16.6,41.7,16.8,41.6L16.8,41.6z"/>
		</g>
		<g>
			<path fill="#140958" d="M17.3,42.7c0,0-0.1,0-0.2,0c-0.2,0-0.3-0.2-0.4-0.3c-0.1-0.2-0.2-0.3-0.2-0.5c0-0.2,0.1-0.3,0.2-0.4l0,0
				c0.1-0.1,0.3-0.1,0.5-0.1c0.2,0,0.3,0.2,0.4,0.3c0.1,0.2,0.2,0.3,0.2,0.5c0,0.2-0.1,0.3-0.2,0.4C17.5,42.7,17.4,42.7,17.3,42.7z
				 M16.8,41.7c-0.1,0.1-0.1,0.1-0.1,0.2c0,0.1,0.1,0.2,0.1,0.3c0.1,0.1,0.2,0.2,0.3,0.2c0.1,0,0.2,0,0.2,0c0.1-0.1,0.1-0.1,0.1-0.2
				c0-0.1-0.1-0.2-0.1-0.3c-0.1-0.1-0.2-0.2-0.3-0.2C17,41.6,16.9,41.6,16.8,41.7L16.8,41.7z"/>
		</g>
	</g>
	<g>
		<g>
			
				<rect x="16.6" y="41.8" transform="matrix(0.6149 0.7886 -0.7886 0.6149 39.4957 2.7281)" fill="#140958" width="0.7" height="0"/>
		</g>
	</g>
	<g>
		<g>
			<path fill-rule="evenodd" clip-rule="evenodd" fill="#FFFFFF" d="M17.4,44.6c0.1,0.1,0.1,0.2,0,0.3c-0.1,0.1-0.3,0-0.4-0.1
				c-0.1-0.1-0.3-0.1-0.4,0c-1,0.5-1.9,1-2.9,1.6c-0.2,0.1-0.2,0.2-0.2,0.3c0.1,0.1,0.1,0.2,0,0.3c-0.1,0.1-0.2,0-0.3,0
				c-0.5-0.6-1.1-1.3-1.6-2c-0.1-0.1-0.1-0.2,0-0.3c0.2-0.1,0.2,0.1,0.4,0.1c0.1,0,0.2-0.1,0.2-0.2c0.7-0.8,1.4-1.6,2.2-2.4
				c0.1-0.1,0.2-0.2,0.1-0.3c0-0.1-0.2-0.3,0-0.5c0.1-0.1,0.2,0,0.2,0.1c0.4,0.4,0.7,0.9,1.1,1.4c0.1,0.1,0,0.2,0,0.2
				c-0.2,0.1-0.2,0-0.4-0.1c-0.1-0.1-0.2,0-0.3,0.1l-0.6,0.6l0.5,0.6c0.2-0.1,0.5-0.3,0.7-0.4c0.1,0,0.2-0.1,0.2-0.2
				c0-0.2-0.2-0.3,0-0.4c0.1,0,0.2,0,0.2,0C16.6,43.6,17,44.1,17.4,44.6L17.4,44.6z M14.7,44.5L14.3,44l-1.3,1.4l0.1,0.1L14.7,44.5
				L14.7,44.5z"/>
		</g>
		<g>
			<path fill="#140958" d="M13.5,47c-0.1,0-0.2,0-0.2-0.1l0,0l-1.6-2c-0.1-0.1-0.1-0.3,0-0.5l0,0c0.2-0.1,0.3,0,0.4,0
				c0,0,0.1,0,0.1,0l0,0c0,0,0.1-0.1,0.1-0.1l2.2-2.5c0,0,0.1-0.1,0.1-0.2l0,0c0,0,0-0.1,0-0.1c-0.1-0.1-0.2-0.3,0-0.5l0,0
				c0.2-0.1,0.3,0,0.4,0.1l1.1,1.4c0.1,0.1,0.1,0.2,0.1,0.3c0.1,0,0.2,0,0.3,0.1l1.1,1.4c0.1,0.1,0.1,0.2,0.1,0.2
				c0,0.1-0.1,0.2-0.1,0.2c-0.1,0.1-0.3,0.1-0.5-0.1c-0.1,0-0.1,0-0.2,0l-2.9,1.6c-0.1,0.1-0.1,0.1-0.1,0.1l0,0
				c0.1,0.1,0.1,0.3-0.1,0.4C13.6,47,13.5,47,13.5,47z M13.4,46.7C13.5,46.8,13.5,46.8,13.4,46.7c0.1,0,0.1,0,0.1,0
				C13.5,46.8,13.5,46.7,13.4,46.7l0-0.1c-0.1-0.2,0-0.3,0.2-0.5l2.8-1.6c0.1-0.1,0.3-0.2,0.5,0l0,0c0.1,0.1,0.1,0.1,0.2,0.1
				c0,0,0,0,0,0l0,0l-1.1-1.4c0,0,0,0-0.1,0c0,0,0,0,0,0c0,0,0,0,0,0.1c0,0.1,0.1,0.1,0.1,0.2c0,0.2-0.1,0.3-0.2,0.4l-0.8,0.5
				l-0.7-0.8l0.7-0.7c0.1-0.2,0.3-0.2,0.5-0.1c0.1,0,0.1,0.1,0.2,0.1c0,0,0,0,0.1,0.1c0,0,0,0,0,0c0,0,0-0.1,0-0.1l-1.1-1.4
				c0,0,0,0-0.1-0.1c0,0,0,0.1,0,0.2c0,0.1,0.1,0.1,0.1,0.2c0,0.2-0.1,0.3-0.2,0.4l-2.2,2.5c-0.1,0.1-0.2,0.2-0.3,0.2
				c-0.1,0-0.2-0.1-0.2-0.1c0,0,0,0-0.1,0c0,0,0,0,0,0c0,0,0,0.1,0,0.1L13.4,46.7z M14.8,43.6l0.4,0.5l0.6-0.4
				c0.1-0.1,0.1-0.1,0.1-0.1l0,0l0,0c0,0,0-0.1,0-0.1c0-0.1-0.1-0.2-0.1-0.3c-0.1,0-0.2-0.1-0.2-0.1c0,0-0.1-0.1-0.1-0.1
				c0,0-0.1,0-0.1,0.1L14.8,43.6z M13,45.7l-0.2-0.3l1.5-1.6l0.6,0.7L13,45.7z M14.3,44.2l-0.9,0.9l1.1-0.7L14.3,44.2z"/>
		</g>
	</g>
	<g>
		<g>
			<path fill="#140958" d="M12.8,45l-0.4-0.5l0,0L12.8,45L12.8,45z M13.2,44.5L12.8,44l0,0L13.2,44.5L13.2,44.5z M13.6,44.1
				l-0.4-0.5l0,0L13.6,44.1L13.6,44.1z M14.1,43.6l-0.4-0.5l0,0L14.1,43.6L14.1,43.6z M14.5,43.1l-0.4-0.5l0,0L14.5,43.1L14.5,43.1z
				 M14.9,42.7l-0.4-0.5l0,0L14.9,42.7L14.9,42.7z"/>
		</g>
	</g>
	<g>
		<g>
			<path fill="#140958" d="M13.5,46l-0.4-0.5l0,0L13.5,46L13.5,46z M14.1,45.7l-0.4-0.5l0,0L14.1,45.7L14.1,45.7z M14.6,45.3
				l-0.4-0.5l0,0L14.6,45.3L14.6,45.3z M15.2,45l-0.4-0.5l0,0L15.2,45L15.2,45z M15.7,44.7l-0.4-0.5l0,0L15.7,44.7L15.7,44.7z
				 M16.3,44.4l-0.4-0.5l0,0L16.3,44.4L16.3,44.4z"/>
		</g>
	</g>
	<g>
		<g>
			<path fill-rule="evenodd" clip-rule="evenodd" fill="#FFFFFF" d="M20.7,47.3c0,0.1,0.1,0.1,0,0.2c-0.1,0.1-0.2,0.1-0.3,0
				c-0.1-0.1-0.2,0-0.3,0.2c-0.3,0.4-0.6,0.8-0.8,1.1l0.1,0.1c0.1,0.1,0.1,0.2,0,0.2l-0.1,0.2c-0.1,0.1-0.2,0.1-0.2,0l-0.1-0.1
				c-0.2,0.3-0.5,0.7-0.7,1c-0.1,0.2-0.1,0.3-0.1,0.4c0.1,0.1,0.2,0.2,0.1,0.3c0,0.1-0.1,0.1-0.2,0l-1.3-1c-0.4-0.3-0.6-0.7-0.7-1.3
				c0-0.5,0.2-1.1,0.6-1.6c0.4-0.5,0.9-0.9,1.4-1.1c0.5-0.2,1-0.1,1.4,0.3C19.8,46.6,20.2,47,20.7,47.3L20.7,47.3z M17.9,48.5
				L17.9,48.5c-0.1-0.1-0.2-0.2-0.1-0.3l0.1-0.2c0.1-0.1,0.2-0.1,0.2,0l0.1,0.1l0.8-1.1c-0.1-0.1-0.3-0.1-0.4-0.1
				c-0.1,0-0.3,0.1-0.5,0.2c-0.2,0.2-0.4,0.4-0.7,0.8c-0.3,0.4-0.5,0.7-0.6,0.9c-0.1,0.2-0.1,0.4-0.1,0.5c0,0.1,0.1,0.2,0.2,0.3
				L17.9,48.5L17.9,48.5z"/>
		</g>
		<g>
			<path fill="#140958" d="M18,51.1c-0.1,0-0.1,0-0.2,0l0,0l-1.3-1c-0.5-0.3-0.7-0.8-0.7-1.4c0-0.6,0.2-1.1,0.6-1.7
				c0.4-0.6,0.9-0.9,1.4-1.1c0.5-0.2,1.1-0.1,1.6,0.3l1.4,1l0,0c0.1,0.1,0.1,0.2,0,0.4c-0.2,0.2-0.4,0.1-0.5,0c0,0-0.1,0.1-0.1,0.1
				l-0.8,1l0,0c0.1,0.1,0.2,0.3,0.1,0.4l-0.1,0.2c0,0.1-0.1,0.1-0.2,0.1c-0.1,0-0.2,0-0.2-0.1l0,0l-0.7,0.9
				c-0.1,0.1-0.1,0.1-0.1,0.2c0,0,0,0,0,0c0.1,0.1,0.2,0.2,0.1,0.4C18.2,51.1,18.1,51.1,18,51.1z M18,50.9C18,50.9,18,50.9,18,50.9
				C18.1,50.8,18.1,50.8,18,50.9c0.1-0.1,0-0.1,0-0.1c0,0,0,0,0,0l0,0c-0.1-0.2-0.1-0.3,0.1-0.5l0.8-1.1l0.2,0.2c0,0,0,0,0,0
				s0,0,0,0l0.1-0.2c0,0,0,0,0-0.1L19,48.8l0.9-1.2c0.2-0.3,0.4-0.3,0.5-0.2c0.1,0.1,0.2,0.1,0.2,0c0,0,0,0,0,0l-1.3-1
				c-0.4-0.3-0.9-0.4-1.3-0.3c-0.5,0.1-0.9,0.5-1.3,1c-0.4,0.5-0.6,1.1-0.6,1.6c0,0.5,0.2,0.9,0.6,1.2L18,50.9z M17.2,49.7l-0.1-0.1
				c-0.1-0.1-0.2-0.2-0.3-0.4c0-0.1,0-0.3,0.1-0.6c0.1-0.2,0.3-0.5,0.6-0.9c0.3-0.4,0.5-0.6,0.7-0.8c0.2-0.2,0.4-0.3,0.5-0.3
				c0.2,0,0.3,0,0.5,0.2l0.1,0.1l-1,1.3l-0.2-0.1c0,0,0,0-0.1,0l-0.1,0.2c0,0,0,0,0,0c0,0,0,0,0,0l0.2,0.1L17.2,49.7z M18.7,47
				C18.7,47,18.7,47,18.7,47c-0.1,0-0.2,0-0.4,0.2c-0.2,0.2-0.4,0.4-0.7,0.8c-0.3,0.4-0.4,0.6-0.5,0.9C17,49,17,49.1,17,49.2
				c0,0.1,0,0.1,0.1,0.2l0.6-0.8c0,0-0.1-0.1-0.1-0.2c0-0.1,0-0.2,0.1-0.2l0.1-0.2c0.1-0.1,0.3-0.2,0.4-0.1l0.7-0.9
				C18.8,47,18.8,47,18.7,47z"/>
		</g>
	</g>
	<g>
		<g>
			<path fill="#140958" d="M17.8,50l-0.7-0.5l0,0L17.8,50L17.8,50z M18.2,49.5L17.5,49l0,0L18.2,49.5L18.2,49.5z M18.6,49l-0.7-0.5
				l0,0L18.6,49L18.6,49z M16.4,49l-0.5-0.4l0,0L16.4,49L16.4,49z M19,48.5L18.3,48l0,0L19,48.5L19,48.5z M16.7,48.4l-0.6-0.5l0,0
				L16.7,48.4L16.7,48.4z M19.3,48l-0.7-0.5l0,0L19.3,48L19.3,48z M17,47.8l-0.7-0.5l0,0L17,47.8L17,47.8z M19.7,47.5L19.1,47l0,0
				L19.7,47.5L19.7,47.5z M17.4,47.3l-0.7-0.5l0,0L17.4,47.3L17.4,47.3z M17.8,46.9l-0.7-0.5l0,0L17.8,46.9L17.8,46.9z M18.4,46.5
				l-0.6-0.4l0,0L18.4,46.5L18.4,46.5z"/>
		</g>
	</g>
	<g>
		<g>
			<path fill-rule="evenodd" clip-rule="evenodd" fill="#FFFFFF" d="M13.7,21.2c0,0.1-0.2,0.1-0.2,0.1c-0.1-0.1-0.1-0.3,0-0.4
				c0-0.2,0-0.3-0.1-0.4c-0.8-0.7-1.6-1.5-2.4-2.2c-0.2-0.2-0.3-0.1-0.3-0.1c-0.1,0.1-0.2,0.2-0.3,0.1c-0.1-0.1-0.1-0.2,0-0.3
				c0.4-0.7,0.9-1.4,1.4-2.1c0.1-0.1,0.2-0.1,0.3-0.1c0.2,0.1,0,0.3,0,0.4c0,0.1,0.1,0.1,0.2,0.2c1,0.4,2,0.9,3,1.3
				c0.1,0,0.2,0.1,0.3,0c0.1,0,0.2-0.3,0.4-0.2c0.1,0.1,0.1,0.1,0,0.3c-0.3,0.5-0.6,1-1,1.5c-0.1,0.1-0.2,0.1-0.2,0.1
				c-0.2-0.1,0-0.2,0-0.4c0-0.1,0-0.2-0.2-0.3l-0.8-0.4L13.3,19c0.2,0.2,0.4,0.4,0.6,0.6c0.1,0.1,0.2,0.1,0.3,0.1
				c0.1,0,0.2-0.3,0.4-0.2c0.1,0.1,0.1,0.1,0,0.2C14.4,20.2,14,20.7,13.7,21.2L13.7,21.2z M12.9,18.6l0.4-0.5l-1.7-0.8l-0.1,0.1
				L12.9,18.6L12.9,18.6z"/>
		</g>
		<g>
			<path fill="#140958" d="M13.6,21.5c-0.1,0-0.1,0-0.2-0.1c-0.1-0.1-0.2-0.2,0-0.5c0-0.1,0-0.1-0.1-0.2l-2.4-2.2
				c-0.1-0.1-0.1-0.1-0.2-0.1l0,0c-0.1,0.1-0.2,0.2-0.4,0.1c-0.1-0.1-0.2-0.3-0.1-0.4l0,0l1.4-2.1c0.1-0.2,0.3-0.2,0.5-0.1l0,0
				c0.2,0.1,0.1,0.3,0.1,0.4c0,0,0,0.1,0,0.1l0,0c0,0,0.1,0,0.1,0.1l3,1.3c0.1,0,0.2,0.1,0.2,0l0,0c0,0,0,0,0.1-0.1
				c0.1-0.1,0.2-0.3,0.5-0.1l0,0c0.2,0.2,0.1,0.3,0,0.4l-1,1.5c-0.1,0.1-0.2,0.1-0.3,0.1c0,0.1,0,0.2,0,0.3l-1,1.5
				C13.8,21.4,13.7,21.4,13.6,21.5C13.6,21.4,13.6,21.5,13.6,21.5z M10.7,18.1c0.1,0,0.2,0.1,0.3,0.2l2.4,2.2
				c0.1,0.1,0.3,0.3,0.2,0.5l0,0c0,0.1-0.1,0.2,0,0.2c0,0,0,0,0,0l0,0l1-1.5c0,0,0,0,0-0.1c0,0,0,0,0,0c0,0,0,0-0.1,0.1
				c0,0.1-0.1,0.1-0.2,0.1c-0.1,0.1-0.3,0-0.4-0.1L13.1,19l0.6-0.9l0.9,0.4c0.2,0.1,0.3,0.2,0.3,0.4c0,0.1,0,0.1-0.1,0.2
				c0,0,0,0.1,0,0.1c0,0,0,0,0,0c0,0,0.1,0,0.1,0l1-1.4c0,0,0-0.1,0-0.1c0,0-0.1,0-0.1,0.1c0,0-0.1,0.1-0.2,0.1
				c-0.2,0.1-0.3,0-0.4,0l-3-1.3c-0.1,0-0.2-0.1-0.3-0.2c0-0.1,0-0.2,0-0.2c0,0,0-0.1,0-0.1c0,0,0,0,0,0c0,0-0.1,0-0.1,0l-1.4,2.1
				c0,0.1,0,0.1,0,0.1c0,0,0,0,0,0c0,0,0,0,0.1-0.1l0,0C10.6,18.1,10.7,18.1,10.7,18.1z M13.5,19l0.6,0.5c0.1,0.1,0.1,0.1,0.1,0.1
				l0,0c0,0,0.1,0,0.1-0.1c0,0,0.1-0.1,0.2-0.2c0-0.1,0-0.2,0-0.3c0,0,0-0.1,0-0.1c0,0,0-0.1-0.1-0.1l-0.7-0.3L13.5,19z M12.9,18.8
				l-1.7-1.4l0.2-0.3l2,0.9L12.9,18.8z M11.9,17.6l1,0.9l0.2-0.3L11.9,17.6z"/>
		</g>
	</g>
	<g>
		<g>
			<path fill="#140958" d="M14.8,18.3L14.8,18.3l0.3-0.6l0,0L14.8,18.3z M14.2,18.1L14.2,18.1l0.3-0.6l0,0L14.2,18.1z M13.6,17.8
				L13.6,17.8l0.3-0.6l0,0L13.6,17.8z M13.1,17.5L13.1,17.5l0.3-0.6l0,0L13.1,17.5z M12.5,17.3L12.5,17.3l0.3-0.6l0,0L12.5,17.3z
				 M11.9,17L11.9,17l0.3-0.6l0,0L11.9,17z"/>
		</g>
	</g>
	<g>
		<g>
			<path fill="#140958" d="M13.6,20.1L13.6,20.1l0.3-0.6l0,0L13.6,20.1z M13.1,19.7L13.1,19.7l0.3-0.6l0,0L13.1,19.7z M12.6,19.3
				L12.6,19.3l0.3-0.6l0,0L12.6,19.3z M12.2,18.9L12.2,18.9l0.3-0.6l0,0L12.2,18.9z M11.7,18.5L11.7,18.5l0.3-0.6l0,0L11.7,18.5z
				 M11.2,18L11.2,18l0.3-0.6l0,0L11.2,18z"/>
		</g>
	</g>
	<g>
		<g>
			<path fill-rule="evenodd" clip-rule="evenodd" fill="#FFFFFF" d="M16.6,16.9c-0.1,0-0.1,0.1-0.2,0c-0.2-0.1,0-0.3,0.1-0.4
				c0.1-0.1,0-0.2-0.1-0.3c-0.7-0.8-1.5-1.6-2.2-2.4c-0.1-0.1-0.2-0.2-0.2-0.2c-0.1,0-0.2,0.2-0.4,0.1c-0.1-0.1,0-0.1,0-0.2l1-1
				c0.8,0.4,1.6,0.8,2.5,1.2c0-0.1-0.5-0.6-0.7-0.7c-0.2-0.2-0.4-0.4-0.6-0.7c-0.1-0.1-0.2-0.2-0.4-0.1c-0.1,0.1-0.3,0.2-0.3,0
				c0,0,0-0.1,0.1-0.2c0.3-0.3,0.6-0.6,0.9-0.9c0.1,0,0.1-0.1,0.2,0c0.1,0.1,0.1,0.2,0,0.3c-0.1,0.1,0,0.2,0.1,0.4l2.7,2.9l-0.7,0.6
				c-1-0.5-1.9-0.9-2.9-1.4c0.2,0.2,0.8,0.9,0.9,1c0.2,0.2,0.4,0.4,0.6,0.7c0.1,0.1,0.2,0.2,0.3,0.1c0.1-0.1,0.2-0.2,0.4-0.1
				c0.1,0.1,0,0.2,0,0.2C17.2,16.3,16.9,16.6,16.6,16.9L16.6,16.9z"/>
		</g>
		<g>
			<path fill="#140958" d="M16.5,17.1c-0.1,0-0.1,0-0.2-0.1c-0.2-0.2-0.1-0.4,0-0.5c0,0,0,0,0,0c0,0,0-0.1-0.1-0.2L14.1,14
				c-0.1-0.1-0.1-0.1-0.1-0.1c0,0,0,0-0.1,0c-0.1,0.1-0.3,0.2-0.4,0l0,0c0-0.1-0.1-0.2,0-0.4l0,0l1.1-1l0.1,0
				c0.6,0.3,1.1,0.6,1.8,0.9l0.2,0.1c0,0-0.1-0.1-0.1-0.1c-0.1-0.1-0.1-0.1-0.2-0.2l-0.6-0.7c-0.1-0.1-0.2-0.1-0.2-0.1
				c-0.1,0.1-0.2,0.1-0.3,0.1c-0.1,0-0.1-0.1-0.2-0.2c0-0.1,0-0.3,0.1-0.4l0.9-0.8c0.1-0.1,0.3-0.1,0.4,0l0,0
				c0.1,0.1,0.1,0.2,0.1,0.2c0,0.1,0,0.2-0.1,0.3c0,0.1,0.1,0.1,0.1,0.2l2.8,3l-0.8,0.8l-0.1,0c-0.7-0.3-1.4-0.7-2.2-1l-0.2-0.1
				c0.1,0.1,0.2,0.2,0.3,0.3l0.8,0.9c0.1,0.1,0.1,0.1,0.2,0.1l0,0c0.1-0.1,0.3-0.2,0.5,0l0,0c0.1,0.1,0.1,0.3,0,0.4l0,0l-1,0.9
				C16.6,17.1,16.5,17.1,16.5,17.1z M16.5,16.8C16.5,16.8,16.5,16.8,16.5,16.8C16.5,16.8,16.5,16.8,16.5,16.8l1-0.8c0,0,0,0,0-0.1
				c0,0,0,0-0.1,0.1l-0.1,0c-0.1,0-0.3,0.1-0.5-0.2L16,15c-0.2-0.2-0.6-0.6-0.7-0.8l0.2-0.2l0.8,0.4c0.7,0.3,1.4,0.6,2.1,1l0.5-0.5
				L16.2,12c-0.3-0.3-0.2-0.5-0.1-0.5l0,0c0.1-0.1,0.1-0.1,0.1-0.1c0,0,0,0,0,0c0,0,0,0,0,0l-0.9,0.9c0,0,0,0,0,0.1c0,0,0,0,0,0
				c0,0,0,0,0.1-0.1l0,0c0.2-0.1,0.4-0.1,0.5,0.2l0.6,0.7c0,0,0.1,0.1,0.2,0.2c0.3,0.4,0.5,0.5,0.5,0.6L17,13.9l-0.7-0.4
				c-0.6-0.3-1.1-0.5-1.7-0.8l-1,0.9c0,0,0,0,0,0c0,0,0,0,0.1,0c0.1,0,0.1-0.1,0.2-0.1c0.1,0,0.2,0.1,0.3,0.2l2.2,2.4
				c0.2,0.2,0.2,0.4,0.1,0.5l0,0c0,0,0,0,0,0.1C16.5,16.7,16.5,16.8,16.5,16.8L16.5,16.8z M15.2,12.2C15.2,12.2,15.2,12.2,15.2,12.2
				C15.2,12.2,15.2,12.2,15.2,12.2z"/>
		</g>
	</g>
	<g>
		<g>
			<path fill="#140958" d="M16.7,15.9L16.7,15.9l0.2-0.2l0,0L16.7,15.9z M16.2,15.5L16.2,15.5l0.2-0.2l0,0L16.2,15.5z M15.8,15
				L15.8,15l0.2-0.2l0,0L15.8,15z M15.4,14.5L15.4,14.5l0.2-0.2l0,0L15.4,14.5z M15,14.1L15,14.1l0.9-0.8l0,0L15,14.1z M14.5,13.6
				L14.5,13.6l0.7-0.7l0,0L14.5,13.6z"/>
		</g>
	</g>
	<g>
		<g>
			<path fill="#140958" d="M18.1,14.6L18.1,14.6l0.4-0.4l0,0L18.1,14.6z M17.4,14.4L17.4,14.4l0.6-0.6l0,0L17.4,14.4z M17.4,13.5
				L17.4,13.5l0.2-0.3l0,0L17.4,13.5z M17,13.1L17,13.1l0.2-0.3l0,0L17,13.1z M16.5,12.6L16.5,12.6l0.2-0.3l0,0L16.5,12.6z
				 M16.1,12.2L16.1,12.2l0.2-0.3l0,0L16.1,12.2z"/>
		</g>
	</g>
	<g>
		<g>
			<path fill="#140958" d="M16.8,14.1L16.8,14.1l0.3-0.3l0,0L16.8,14.1z M16,13.9L16,13.9l0.4-0.4l0,0L16,13.9z"/>
		</g>
	</g>
	<g>
		<g>
			<path fill-rule="evenodd" clip-rule="evenodd" fill="#FFFFFF" d="M22.3,10.8c-0.1-0.2-0.2-0.2-0.3-0.2c-0.1,0-0.2,0.1-0.3-0.1
				c-0.1-0.1,0-0.2,0.1-0.2L23,9.7c0.2-0.1,0.4-0.2,0.4-0.1c0.1,0.1,0,0.2-0.1,0.3c-0.1,0.1-0.1,0.1,0,0.3c0.1,0.2,0.1,0.3,0.2,0.4
				c0.1,0.3,0.1,0.5,0,0.7c0,0.2-0.1,0.4-0.3,0.6c-0.1,0.2-0.3,0.3-0.6,0.5c-0.5,0.3-0.9,0.3-1.4,0.1c-0.5-0.2-0.9-0.6-1.2-1.3
				c-0.4-0.7-0.5-1.2-0.5-1.7c0-0.5,0.2-0.8,0.6-1.1c0.3-0.1,0.5-0.1,0.8,0c0.1,0,0.1,0,0.1-0.1c0-0.1,0-0.1,0-0.2
				c0-0.1,0-0.3,0.2-0.4c0.2-0.1,0.3,0,0.4,0.1c0.2,0.3,0.3,0.6,0.5,0.9c0.1,0.2,0,0.4-0.2,0.5c-0.2,0.1-0.4,0-0.5-0.1
				c-0.1-0.2-0.2-0.2-0.3-0.3c-0.1-0.1-0.3-0.2-0.5-0.1c-0.2,0.1-0.2,0.3-0.1,0.5c0.1,0.2,0.2,0.6,0.5,1.1c0.2,0.4,0.4,0.7,0.6,0.9
				c0.1,0.2,0.3,0.4,0.3,0.4c0.1,0,0.2,0.1,0.3,0C22.6,11.6,22.5,11.2,22.3,10.8L22.3,10.8z"/>
		</g>
		<g>
			<path fill="#140958" d="M21.8,12.7c-0.2,0-0.5,0-0.7-0.1c-0.5-0.2-0.9-0.7-1.3-1.4c-0.4-0.7-0.6-1.3-0.5-1.8
				c0-0.5,0.3-0.9,0.7-1.2c0.3-0.2,0.5-0.1,0.8,0c0,0,0,0,0,0l0,0c-0.1-0.2,0-0.4,0.2-0.5c0.2-0.1,0.4-0.1,0.6,0.1l0,0l0.5,1
				c0.1,0.3,0,0.5-0.2,0.6c-0.2,0.1-0.5,0.1-0.6-0.1l0,0c-0.1-0.1-0.1-0.2-0.2-0.2L21,9c-0.1-0.1-0.2-0.1-0.3-0.1
				c-0.1,0.1-0.1,0.2-0.1,0.3l0,0c0.1,0.2,0.2,0.5,0.5,1.1c0.2,0.4,0.4,0.7,0.5,0.9c0.1,0.1,0.2,0.3,0.3,0.4c0.1,0,0.1,0,0.2,0
				c0,0,0.1-0.1,0.1-0.1c0-0.2,0-0.4-0.2-0.6l0,0c-0.1-0.1-0.1-0.1-0.2-0.1c-0.1,0-0.3,0.1-0.5-0.1c-0.1-0.1,0-0.3,0.1-0.4l0,0
				l1.3-0.7c0.2-0.1,0.3-0.2,0.5-0.1c0.1,0,0.1,0,0.2,0.1c0.1,0.2-0.1,0.4-0.2,0.5l0,0c0,0,0,0.1,0,0.1c0.1,0.2,0.1,0.3,0.2,0.5
				c0.1,0.3,0.1,0.5,0,0.8c0,0.3-0.1,0.5-0.3,0.7c-0.1,0.2-0.3,0.4-0.6,0.5C22.4,12.7,22.1,12.7,21.8,12.7z M20.4,8.4
				c-0.1,0-0.2,0-0.3,0.1c-0.4,0.2-0.5,0.5-0.6,0.9c0,0.5,0.1,1,0.5,1.7c0.3,0.6,0.7,1,1.2,1.2c0.4,0.2,0.9,0.2,1.3-0.1
				c0.2-0.1,0.4-0.3,0.5-0.4c0.1-0.2,0.2-0.3,0.2-0.6c0-0.2,0-0.4,0-0.7c0-0.1-0.1-0.3-0.1-0.4c-0.1-0.2-0.1-0.3,0.1-0.4l0,0
				c0.1-0.1,0.1-0.1,0.1-0.1c0,0-0.1,0-0.3,0.1l-1.3,0.7c0,0,0,0,0,0c0,0,0,0,0.1,0l0,0c0.3-0.1,0.4,0.1,0.5,0.3
				c0.2,0.3,0.2,0.6,0.2,0.8c0,0.1-0.1,0.2-0.2,0.3c-0.1,0.1-0.3,0.1-0.5,0c-0.1-0.1-0.2-0.2-0.4-0.4c-0.1-0.2-0.3-0.5-0.6-0.9
				c-0.3-0.5-0.4-0.9-0.5-1.1l0,0c-0.1-0.3,0-0.6,0.2-0.7c0.2-0.1,0.5,0,0.6,0.1l0,0C21.4,9,21.4,9,21.5,9.2c0.1,0.1,0.2,0.1,0.3,0
				c0.1,0,0.2-0.2,0.1-0.3L21.4,8c-0.1-0.1-0.2-0.1-0.3-0.1c-0.1,0-0.1,0.1-0.1,0.2l0,0c0,0.1,0,0.1,0,0.2l0,0l0,0
				c0,0.1-0.1,0.2-0.2,0.2h0l0,0C20.7,8.5,20.5,8.4,20.4,8.4z"/>
		</g>
	</g>
	<g>
		<g>
			<path fill="#140958" d="M21.5,12.1L21.5,12.1l0.5-0.3l0,0L21.5,12.1z M20.9,11.7L20.9,11.7l0.7-0.4l0,0L20.9,11.7z M20.5,11.2
				L20.5,11.2l0.7-0.4l0,0L20.5,11.2z M20.2,10.7L20.2,10.7l0.7-0.4l0,0L20.2,10.7z M20,10.1L20,10.1l0.6-0.4l0,0L20,10.1z M20,9.4
				L20,9.4l0.5-0.3l0,0L20,9.4z"/>
		</g>
	</g>
	<g>
		<g>
			<path fill="#140958" d="M22.8,11.4L22.8,11.4l0.6-0.4l0,0L22.8,11.4z M22.7,10.7L22.7,10.7l0.6-0.4l0,0L22.7,10.7z M21.8,9.1
				L21.8,9.1L22,8.9l0,0L21.8,9.1z M21.4,8.6L21.4,8.6l0.4-0.2l0,0L21.4,8.6z"/>
		</g>
	</g>
	<g>
		<g>
			<path fill-rule="evenodd" clip-rule="evenodd" fill="#FFFFFF" d="M24.1,6.7l1.2-0.3c0.1,0,0.2,0,0.3-0.1c0,0,0.2,0,0.2,0.1
				c0,0.1,0,0.2-0.2,0.2c-0.2,0.1-0.2,0.2-0.1,0.3l0.8,3.2c0.1,0.2,0.2,0.2,0.3,0.2c0.1,0,0.2,0,0.2,0.1c0,0.1,0,0.2-0.1,0.2
				l-0.3,0.1l-1.2,0.3c-0.1,0-0.2,0-0.3,0.1c-0.1,0-0.2,0-0.2-0.1c0-0.1,0-0.2,0.1-0.2c0.1,0,0.2-0.1,0.2-0.3l-0.8-3.2
				c0-0.2-0.1-0.2-0.3-0.2c-0.1,0-0.2,0-0.2-0.1c0-0.1,0-0.2,0.1-0.2L24.1,6.7L24.1,6.7z"/>
		</g>
		<g>
			<path fill="#140958" d="M25,11.4c-0.1,0-0.3-0.1-0.3-0.2c0-0.1,0.1-0.3,0.2-0.4l0,0c0,0,0.1,0,0.1-0.1c0,0,0-0.1,0-0.1l-0.8-3.2
				c0-0.1,0-0.1-0.1-0.1c-0.1,0-0.2,0-0.2,0c-0.1,0-0.1-0.1-0.1-0.2c0-0.2,0-0.3,0.2-0.4l0,0l1.7-0.5c0.1,0,0.3,0,0.4,0.2l0,0
				c0,0.2-0.1,0.3-0.3,0.4c0,0-0.1,0,0,0.2l0.8,3.2c0,0.1,0.1,0.1,0.2,0.1l0,0c0.2,0,0.3,0.1,0.3,0.2l0,0c0,0.2-0.1,0.3-0.2,0.4
				L25,11.4C25,11.4,25,11.4,25,11.4z M25,11C25,11,24.9,11,25,11C25,11.1,25,11.1,25,11l1.7-0.4c0,0,0,0,0,0c0,0,0,0-0.1,0
				c-0.2,0.1-0.4-0.1-0.5-0.3l-0.8-3.2c-0.1-0.2,0-0.4,0.2-0.5c0.1,0,0.1,0,0.1-0.1c0,0,0,0,0,0l-1.7,0.4c0,0,0,0,0,0c0,0,0,0,0,0
				c0,0,0,0,0.1,0l0,0l0,0c0.2,0,0.4,0.1,0.4,0.3l0.8,3.2c0,0.1,0,0.2,0,0.3C25.2,10.9,25.1,11,25,11z"/>
		</g>
	</g>
	<g>
		<g>
			<path fill="#140958" d="M25.5,10.4L25.5,10.4l0.8-0.2l0,0L25.5,10.4z M25.3,9.8L25.3,9.8l0.8-0.2l0,0L25.3,9.8z M25.2,9.2
				L25.2,9.2L26,8.9l0,0L25.2,9.2z M25,8.6L25,8.6l0.8-0.2l0,0L25,8.6z M24.9,8L24.9,8l0.8-0.2l0,0L24.9,8z M24.7,7.3L24.7,7.3
				l0.8-0.2l0,0L24.7,7.3z"/>
		</g>
	</g>
	<g>
		<g>
			<path fill-rule="evenodd" clip-rule="evenodd" fill="#FFFFFF" d="M28.1,10.3c-0.1,0-0.2,0-0.2-0.1c0-0.2,0.2-0.2,0.3-0.2
				c0.2-0.1,0.2-0.2,0.2-0.3c0.1-1.1,0.2-2.2,0.3-3.2c0-0.2,0-0.3-0.1-0.3c-0.1,0-0.2,0-0.2-0.2c0-0.1,0.1-0.2,0.2-0.2
				c0.8-0.1,1.7-0.1,2.5-0.2c0.1,0,0.2,0.1,0.2,0.2c0,0.2-0.2,0.1-0.3,0.3c-0.1,0.1,0,0.2,0,0.3c0.3,1.1,0.5,2.1,0.8,3.2
				c0,0.1,0.1,0.2,0.2,0.3c0.1,0.1,0.4,0,0.4,0.2c0,0.1-0.1,0.1-0.2,0.1c-0.6,0-1.2,0.1-1.7,0.1c-0.1,0-0.2-0.1-0.2-0.1
				c0-0.2,0.2-0.2,0.3-0.2c0.1-0.1,0.1-0.2,0.1-0.3l-0.2-0.8l-0.8,0.1c0,0.3,0,0.6-0.1,0.9c0,0.1,0,0.2,0.1,0.3
				c0.1,0.1,0.4,0,0.4,0.2c0,0.1-0.1,0.2-0.2,0.2C29.3,10.3,28.7,10.3,28.1,10.3L28.1,10.3z M29.7,8.1l0.6,0l-0.4-1.9l-0.1,0
				L29.7,8.1L29.7,8.1z"/>
		</g>
		<g>
			<path fill="#140958" d="M28.1,10.5c-0.1,0-0.1,0-0.2-0.1c-0.1-0.1-0.1-0.1-0.1-0.2c0-0.1,0.1-0.3,0.4-0.4c0.1,0,0.1-0.1,0.1-0.2
				l0.3-3.2c0-0.2,0-0.2,0-0.2l0,0c-0.1,0-0.3,0-0.3-0.3c0-0.2,0.1-0.3,0.3-0.3l0,0L31,5.4c0.2,0,0.4,0.1,0.4,0.3l0,0
				c0,0.2-0.2,0.3-0.3,0.3c0,0-0.1,0-0.1,0l0,0c0,0,0,0.1,0,0.1l0.8,3.2c0,0.1,0,0.2,0.1,0.2l0,0c0,0,0.1,0,0.1,0
				c0.1,0,0.3,0,0.4,0.3l0,0l0,0c0,0.2-0.2,0.3-0.3,0.3l-1.7,0.1c-0.1,0-0.2,0-0.3-0.1c0,0.1-0.1,0.1-0.2,0.2L28.1,10.5
				C28.1,10.5,28.1,10.5,28.1,10.5z M28.5,5.9C28.5,5.9,28.5,5.9,28.5,5.9l0.1,0c0.2,0,0.3,0.2,0.2,0.5l-0.3,3.2
				c0,0.1,0,0.4-0.3,0.5l0,0c-0.1,0-0.2,0-0.2,0.1c0,0,0,0,0,0l0,0l1.8-0.1c0,0,0,0,0-0.1c0,0,0,0,0,0c0,0-0.1,0-0.1,0
				c-0.1,0-0.2,0-0.2-0.1c-0.1-0.1-0.2-0.2-0.2-0.4l0.1-1l1.1-0.1l0.2,1c0.1,0.2,0,0.4-0.2,0.4c-0.1,0-0.1,0.1-0.2,0.1
				c0,0-0.1,0-0.1,0c0,0,0,0,0,0c0,0,0,0,0.1,0l1.7-0.1c0,0,0.1,0,0.1,0c0,0,0-0.1-0.1-0.1c-0.1,0-0.1,0-0.2-0.1
				c-0.2-0.1-0.2-0.3-0.2-0.4l-0.8-3.2c0-0.1-0.1-0.2,0-0.4c0.1-0.1,0.1-0.1,0.2-0.1c0,0,0.1,0,0.1,0c0,0,0,0,0,0
				c0,0-0.1-0.1-0.1-0.1L28.5,5.9C28.5,5.9,28.5,5.9,28.5,5.9C28.5,5.9,28.5,5.9,28.5,5.9C28.5,5.9,28.5,5.9,28.5,5.9z M29.7,8.8
				l0,0.7c0,0.1,0,0.1,0,0.2l0,0c0,0,0.1,0,0.1,0c0.1,0,0.2,0,0.3,0.1c0.1-0.1,0.2-0.1,0.2-0.1c0,0,0.1,0,0.1,0c0,0,0.1,0,0-0.2
				l-0.2-0.7L29.7,8.8z M29.5,8.3l0.1-2.2l0.4,0l0.5,2.1L29.5,8.3z M29.9,6.7L29.8,8l0.3,0L29.9,6.7z"/>
		</g>
	</g>
	<g>
		<g>
			<path fill="#140958" d="M31,9.5L31,9.5l0.6-0.1l0,0L31,9.5z M30.9,8.9L30.9,8.9l0.6-0.1l0,0L30.9,8.9z M30.8,8.3L30.8,8.3
				l0.6-0.1l0,0L30.8,8.3z M30.6,7.7L30.6,7.7l0.6-0.1l0,0L30.6,7.7z M30.5,7.1L30.5,7.1L31.1,7l0,0L30.5,7.1z M30.3,6.4L30.3,6.4
				L31,6.4l0,0L30.3,6.4z"/>
		</g>
	</g>
	<g>
		<g>
			<path fill="#140958" d="M28.9,9.7L28.9,9.7l0.6-0.1l0,0L28.9,9.7z M28.9,9.1L28.9,9.1L29.5,9l0,0L28.9,9.1z M29,8.4L29,8.4
				l0.6-0.1l0,0L29,8.4z M29,7.8L29,7.8l0.6-0.1l0,0L29,7.8z M29,7.2L29,7.2l0.6-0.1l0,0L29,7.2z M29.1,6.5L29.1,6.5l0.6-0.1l0,0
				L29.1,6.5z"/>
		</g>
	</g>
	<g>
		<g>
			<path fill-rule="evenodd" clip-rule="evenodd" fill="#FFFFFF" d="M33.3,10.1c-0.1,0-0.1-0.1-0.1-0.2c0-0.2,0.2-0.2,0.3-0.2
				c0.1,0,0.2-0.1,0.2-0.3c0.1-1.1,0.3-2.1,0.4-3.2c0-0.2,0-0.2,0-0.3c-0.1-0.1-0.3,0-0.3-0.3c0-0.1,0.1-0.1,0.2-0.1l1.4,0.2
				c0.2,0.9,0.4,1.7,0.6,2.7c0.1-0.1,0.1-0.8,0.2-1c0-0.3,0.1-0.6,0.1-0.9c0-0.2,0-0.3-0.1-0.4c-0.1,0-0.3-0.1-0.2-0.3
				c0,0,0.1-0.1,0.2-0.1C36.6,5.9,37,6,37.4,6c0.1,0,0.1,0.1,0.1,0.2c0,0.1-0.1,0.2-0.3,0.2c-0.1,0-0.2,0.1-0.2,0.3l-0.5,3.9
				l-0.9-0.1c-0.3-1.1-0.5-2.1-0.8-3.1c0,0.3-0.2,1.1-0.2,1.4c0,0.3-0.1,0.6-0.1,0.9c0,0.2,0,0.3,0.1,0.3c0.1,0,0.3,0.1,0.3,0.2
				c0,0.1-0.1,0.1-0.2,0.1C34.2,10.2,33.8,10.2,33.3,10.1L33.3,10.1z"/>
		</g>
		<g>
			<path fill="#140958" d="M36.6,10.7l-1.1-0.2l0-0.1C35.2,9.7,35,9,34.8,8.2l0-0.2c0,0.1,0,0.3-0.1,0.4l-0.2,1.2c0,0.1,0,0.2,0,0.2
				l0,0c0.1,0,0.3,0.1,0.3,0.4l0,0c0,0.1-0.2,0.2-0.3,0.2h0l0,0l-1.3-0.2c-0.1-0.1-0.2-0.2-0.2-0.3c0-0.3,0.3-0.3,0.4-0.3
				c0,0,0,0,0,0c0,0,0.1,0,0.1-0.2L34,6.3c0-0.2,0-0.2,0-0.2c0,0,0,0-0.1,0c-0.1,0-0.3-0.1-0.3-0.4l0,0c0-0.1,0.1-0.2,0.3-0.2l0,0
				l1.5,0.2l0,0.1c0.2,0.6,0.3,1.2,0.5,1.9l0,0.2c0,0,0-0.1,0-0.1c0-0.1,0-0.2,0-0.2l0.1-0.9c0-0.2,0-0.2,0-0.2
				c-0.1,0-0.2-0.1-0.3-0.2c0-0.1,0-0.1,0-0.3c0-0.1,0.2-0.2,0.4-0.2l1.2,0.2c0.1,0,0.2,0.1,0.3,0.3l0,0l0,0c0,0.1-0.1,0.2-0.1,0.2
				c-0.1,0.1-0.2,0.1-0.3,0.1c-0.1,0-0.1,0.1-0.1,0.2L36.6,10.7z M35.7,10.3l0.7,0.1l0.5-3.8c0-0.4,0.3-0.4,0.3-0.4l0,0l0,0
				c0.1,0,0.1,0,0.1,0c0,0,0,0,0,0c0,0,0,0,0,0L36.1,6c0,0-0.1,0-0.1,0c0,0,0,0,0,0c0,0,0,0,0.1,0.1l0,0c0.2,0.1,0.3,0.2,0.2,0.5
				l-0.1,0.9c0,0.1,0,0.1,0,0.2c-0.1,0.5-0.1,0.7-0.1,0.8l-0.2,0l-0.2-0.8c-0.1-0.6-0.3-1.2-0.4-1.8L34,5.7c0,0,0,0,0,0
				c0,0,0,0,0.1,0.1c0.1,0,0.1,0,0.2,0.1c0.1,0.1,0.1,0.2,0.1,0.4l-0.4,3.2c0,0.3-0.2,0.4-0.3,0.4l0,0c0,0,0,0-0.1,0
				c0,0-0.1,0-0.1,0c0,0,0,0,0,0c0,0,0,0,0,0l1.3,0.2c0,0,0,0,0,0c0,0,0,0-0.1-0.1l-0.1,0c-0.1-0.1-0.2-0.2-0.2-0.5l0.2-1.1
				c0-0.3,0.1-0.8,0.2-1.1l0.3,0l0.2,0.8C35.3,8.9,35.5,9.6,35.7,10.3z M36.1,6C36.1,6,36.1,6,36.1,6C36.1,6,36.1,6,36.1,6z"/>
		</g>
	</g>
	<g>
		<g>
			<path fill="#140958" d="M34.5,9.6l-0.3,0l0,0L34.5,9.6L34.5,9.6z M34.5,8.9l-0.3,0l0,0L34.5,8.9L34.5,8.9z M34.6,8.3l-0.3,0l0,0
				L34.6,8.3L34.6,8.3z M34.7,7.7l-0.3,0l0,0L34.7,7.7L34.7,7.7z M35.7,7.2L34.5,7l0,0L35.7,7.2L35.7,7.2z M35.5,6.5l-0.9-0.1l0,0
				L35.5,6.5L35.5,6.5z"/>
		</g>
	</g>
	<g>
		<g>
			<path fill="#140958" d="M36.6,9.9L36,9.8l0,0L36.6,9.9L36.6,9.9z M36.7,9.3l-0.9-0.1l0,0L36.7,9.3L36.7,9.3z M36.8,8.6l-0.3,0
				l0,0L36.8,8.6L36.8,8.6z M36.9,8l-0.3,0l0,0L36.9,8L36.9,8z M37,7.4l-0.3,0l0,0L37,7.4L37,7.4z M37.1,6.8l-0.3,0l0,0L37.1,6.8
				L37.1,6.8z"/>
		</g>
	</g>
	<g>
		<g>
			<path fill="#140958" d="M36,8.5l-0.4-0.1l0,0L36,8.5L36,8.5z M35.9,7.9l-0.6-0.1l0,0L35.9,7.9L35.9,7.9z"/>
		</g>
	</g>
	<g>
		<g>
			<path fill-rule="evenodd" clip-rule="evenodd" fill="#FFFFFF" d="M40.1,10.1c0.1-0.2,0-0.3-0.1-0.4c-0.1,0-0.2-0.1-0.2-0.3
				c0-0.1,0.1-0.1,0.2-0.1l1.4,0.4c0.3,0.1,0.4,0.1,0.4,0.3c-0.1,0.1-0.2,0.1-0.3,0.1c-0.1,0-0.2,0-0.2,0.2
				c-0.1,0.2-0.1,0.3-0.2,0.4c-0.1,0.2-0.3,0.4-0.5,0.5c-0.2,0.1-0.4,0.2-0.6,0.2c-0.2,0-0.5,0-0.7-0.1c-0.5-0.2-0.9-0.5-1-1
				C38,10,38,9.4,38.3,8.7c0.2-0.7,0.5-1.2,0.9-1.6c0.4-0.3,0.8-0.4,1.2-0.3c0.3,0.1,0.4,0.2,0.5,0.6c0,0,0.1,0,0.1,0
				c0.1-0.1,0.1-0.1,0.1-0.1c0.1-0.1,0.2-0.2,0.4-0.1c0.2,0.1,0.2,0.2,0.2,0.4c-0.1,0.4-0.2,0.7-0.3,1c-0.1,0.2-0.3,0.3-0.4,0.2
				c-0.2,0-0.3-0.2-0.3-0.4c0-0.2,0-0.3,0-0.4c0-0.2-0.1-0.4-0.2-0.4c-0.2-0.1-0.4,0.1-0.4,0.3C39.9,8,39.7,8.4,39.5,9
				c-0.1,0.5-0.2,0.8-0.3,1.1c0,0.2-0.1,0.4,0,0.5c0,0.1,0.1,0.2,0.2,0.2C39.7,10.9,40,10.6,40.1,10.1L40.1,10.1z"/>
		</g>
		<g>
			<path fill="#140958" d="M39.8,11.7c-0.2,0-0.4,0-0.6-0.1c-0.6-0.2-0.9-0.5-1.1-1c-0.2-0.5-0.2-1.1,0.1-1.9
				C38.4,7.9,38.7,7.4,39,7c0.4-0.4,0.8-0.5,1.3-0.3c0.3,0.1,0.5,0.3,0.6,0.6c0,0,0,0,0,0l0,0c0.1-0.2,0.3-0.3,0.5-0.2
				c0.2,0.1,0.3,0.3,0.3,0.5l0,0l-0.3,1c-0.1,0.3-0.4,0.3-0.6,0.3c-0.2,0-0.4-0.3-0.4-0.5l0,0c0-0.2,0-0.2,0-0.3l0-0.1
				c0-0.1-0.1-0.3-0.1-0.3c-0.1,0-0.2,0.1-0.3,0.2l0,0C40,8.1,39.8,8.5,39.7,9c-0.1,0.5-0.2,0.8-0.3,1c0,0.1-0.1,0.4,0,0.5
				c0,0.1,0.1,0.1,0.1,0.2c0,0,0.1,0,0.2,0c0.1-0.1,0.3-0.3,0.3-0.6l0,0c0.1-0.2,0-0.2,0-0.2c-0.1,0-0.3-0.2-0.2-0.4
				c0-0.2,0.2-0.2,0.3-0.2l0,0l1.4,0.4c0.2,0,0.4,0.1,0.4,0.2c0,0,0,0.1,0,0.2c-0.1,0.2-0.3,0.2-0.4,0.2l0,0c0,0-0.1,0-0.1,0.1
				c-0.1,0.2-0.1,0.3-0.2,0.4c-0.1,0.2-0.3,0.4-0.5,0.6c-0.2,0.1-0.4,0.2-0.7,0.3C39.9,11.7,39.8,11.7,39.8,11.7z M40,6.9
				c-0.3,0-0.5,0.1-0.7,0.3c-0.3,0.3-0.6,0.8-0.8,1.5c-0.2,0.7-0.2,1.3-0.1,1.7c0.2,0.4,0.5,0.7,1,0.9c0.2,0.1,0.4,0.1,0.7,0.1
				c0.2,0,0.4-0.1,0.6-0.2c0.2-0.1,0.3-0.3,0.5-0.5c0.1-0.1,0.1-0.2,0.2-0.4c0.1-0.2,0.2-0.3,0.4-0.2l0,0c0.2,0,0.2,0,0.2,0
				c0,0,0-0.1-0.3-0.1L40,9.5c0,0,0,0,0,0c0,0,0,0.1,0.1,0.1l0,0c0.2,0.1,0.2,0.4,0.1,0.5c-0.1,0.3-0.3,0.6-0.5,0.7
				c-0.1,0.1-0.2,0.1-0.4,0c-0.1,0-0.3-0.2-0.3-0.3c0-0.1,0-0.3,0-0.6c0-0.2,0.1-0.6,0.3-1.1c0.2-0.6,0.3-1,0.4-1.1l0,0
				c0.1-0.3,0.4-0.4,0.6-0.3c0.2,0.1,0.3,0.3,0.3,0.5l0,0.1c0,0.1,0,0.2,0,0.4c0,0.1,0.1,0.2,0.2,0.2c0.1,0,0.2,0,0.3-0.1l0.3-1
				c0-0.2-0.1-0.2-0.1-0.2c-0.1,0-0.2,0-0.2,0.1l0,0c0,0,0,0.1-0.1,0.2l0,0l0,0c-0.1,0-0.2,0-0.3-0.1l0,0l0,0
				c-0.1-0.3-0.2-0.4-0.5-0.5C40.2,6.9,40.1,6.9,40,6.9z"/>
		</g>
	</g>
	<g>
		<g>
			<path fill="#140958" d="M39.2,10.6l-0.6-0.2l0,0L39.2,10.6L39.2,10.6z M39.3,10l-0.7-0.2l0,0L39.3,10L39.3,10z M39.4,9.4
				l-0.8-0.2l0,0L39.4,9.4L39.4,9.4z M39.6,8.8l-0.8-0.2l0,0L39.6,8.8L39.6,8.8z M39.8,8.2L39.1,8l0,0L39.8,8.2L39.8,8.2z M40.1,7.6
				l-0.5-0.2l0,0L40.1,7.6L40.1,7.6z"/>
		</g>
	</g>
	<g>
		<g>
			<path fill="#140958" d="M40.7,11.1l-0.7-0.2l0,0L40.7,11.1L40.7,11.1z M41.1,10.6l-0.7-0.2l0,0L41.1,10.6L41.1,10.6z M41.3,8.6
				L41,8.6l0,0L41.3,8.6L41.3,8.6z M41.5,8.1l-0.4-0.1l0,0L41.5,8.1L41.5,8.1z"/>
		</g>
	</g>
	<g>
		<g>
			<path fill-rule="evenodd" clip-rule="evenodd" fill="#140958" d="M45.5,48.1l-0.7-0.8c0-0.1-0.2-0.2-0.2-0.2c0,0,0,0,0,0
				c0,0-0.1,0.1-0.2,0.1c-0.1,0.1-0.3,0.2-0.5,0.1c-0.2,0-0.3-0.3-0.1-0.5c0.3-0.3,0.6-0.5,0.9-0.8c0.3-0.3,0.6-0.5,0.9-0.8
				c0.1-0.1,0.4,0,0.4,0.2c0,0.2-0.1,0.3-0.1,0.4c0,0-0.1,0.1-0.2,0.2l0,0c0,0,0,0,0,0c0,0.1,0.1,0.2,0.2,0.2l0.5,0.6l2,0.7
				c0.1,0,0.5,0.2,0.7,0.2c0.1,0,0.2-0.1,0.4-0.1c0.1,0,0.2,0.1,0.2,0.1c0.1,0.1,0.1,0.3,0,0.4c-0.5,0.5-1.1,0.9-1.6,1.4
				c-0.1,0.1-0.3,0.1-0.4,0c-0.2-0.2-0.2-0.4,0-0.5c0,0,0,0,0,0c-0.1-0.1-0.3-0.1-0.4-0.2l-1.2-0.4l0.2,1.1c0,0.1,0.1,0.4,0.1,0.5
				c0.1,0,0.2-0.1,0.4-0.1c0.1,0,0.2,0,0.2,0.1c0.1,0.1,0.1,0.3,0,0.4l-1,0.8c-0.1,0.1-0.3,0.1-0.4,0c-0.1-0.1-0.1-0.2-0.1-0.3
				c0-0.1,0.1-0.2,0.1-0.3c0-0.2-0.1-0.6-0.1-0.8L45.5,48.1L45.5,48.1z"/>
		</g>
	</g>
	<g>
		<g>
			<path fill="#FFFFFF" d="M46.1,51.2C46,51,46.1,51,46.2,50.8c0-0.1,0-0.4-0.1-0.9L45.8,48l-0.7-0.8c-0.2-0.2-0.3-0.3-0.3-0.3
				c-0.1,0-0.1,0-0.2,0c-0.1,0-0.2,0.1-0.3,0.1c-0.1,0.1-0.2,0.1-0.3,0.1c0,0,0,0,0,0c0.3-0.3,0.6-0.5,0.9-0.8
				c0.3-0.3,0.6-0.5,0.9-0.8c0,0,0,0,0,0c0,0.1,0,0.1-0.1,0.2c-0.1,0.1-0.2,0.2-0.2,0.3c0,0.1,0,0.1,0,0.2c0,0.1,0.1,0.2,0.2,0.3
				l0.6,0.7l2,0.8c0.4,0.1,0.7,0.2,0.8,0.2c0.2,0,0.3-0.2,0.4-0.1c0,0,0,0,0,0c-0.5,0.5-1.1,0.9-1.6,1.4c0,0,0,0,0,0
				c0,0-0.1-0.1,0-0.1c0.1-0.1,0.2-0.2,0.2-0.2c0-0.1,0-0.1,0-0.1c-0.1-0.1-0.2-0.2-0.6-0.3L46,48.1l0.3,1.5
				c0.1,0.4,0.1,0.6,0.2,0.7c0,0,0.1,0.1,0.2,0.1c0.3,0,0.3-0.2,0.4-0.1c0,0,0,0,0,0L46.1,51.2C46.1,51.2,46.1,51.2,46.1,51.2
				L46.1,51.2z"/>
		</g>
	</g>
	<g>
		<g>
			
				<rect x="45.4" y="47.1" transform="matrix(0.6494 0.7605 -0.7605 0.6494 51.9483 -17.9249)" fill="#140958" width="0" height="0.6"/>
		</g>
	</g>
	<g>
		<g>
			
				<rect x="45.7" y="47.5" transform="matrix(0.6461 0.7632 -0.7632 0.6461 52.6448 -18.0176)" fill="#140958" width="0" height="0.6"/>
		</g>
	</g>
	<g>
		<g>
			
				<rect x="46.9" y="47.9" transform="matrix(0.6483 0.7614 -0.7614 0.6483 53.2062 -18.7821)" fill="#140958" width="0" height="0.6"/>
		</g>
	</g>
	<g>
		<g>
			
				<rect x="47.5" y="48.1" transform="matrix(0.6458 0.7635 -0.7635 0.6458 53.7905 -19.1547)" fill="#140958" width="0" height="0.7"/>
		</g>
	</g>
	<g>
		<g>
			
				<rect x="48.1" y="48.2" transform="matrix(0.6522 0.7581 -0.7581 0.6522 53.5467 -19.5549)" fill="#140958" width="0" height="0.7"/>
		</g>
	</g>
	<g>
		<g>
			
				<rect x="46.3" y="47.7" transform="matrix(0.6483 0.7614 -0.7614 0.6483 52.8596 -18.4105)" fill="#140958" width="0" height="0.6"/>
		</g>
	</g>
	<g>
		<g>
			
				<rect x="45.1" y="46.8" transform="matrix(0.6494 0.7605 -0.7605 0.6494 51.5883 -17.7939)" fill="#140958" width="0" height="0.6"/>
		</g>
	</g>
	<g>
		<g>
			<path fill="#140958" d="M46.1,50.3L46.1,50.3l0.2-0.2l0,0L46.1,50.3z M46,49.8L46,49.8l0.2-0.2l0,0L46,49.8z M45.9,49.1
				L45.9,49.1l0.2-0.2l0,0L45.9,49.1z M45.8,48.5L45.8,48.5l0.2-0.2l0,0L45.8,48.5z"/>
		</g>
	</g>
</g>
<g>
	<path fill="#FFFFFF" d="M68.7,29.4h20.8v10.8h-5.5V36c0-0.7-0.4-1.1-1.1-1.3v12c0,1.5,0.3,2.3,0.9,2.5v4.4h-9.4v-4.2
		c0.6-0.2,0.9-0.8,0.9-1.9V34.7c-0.7,0-1.1,0.5-1.1,1.5v4h-5.5V29.4z"/>
	<path fill="#FFFFFF" d="M106.3,29.4l3.3,17.5c0.2,1.2,0.7,2,1.3,2.4v4.2h-9.5v-4.2c0.5-0.4,0.8-1.2,0.8-2.2h-3.7
		c0,1,0.3,1.8,0.9,2.2v4.2h-8.2v-4.4c0.5-0.5,0.9-1.4,1.1-2.4l3.1-17.3H106.3z M98.4,57.7c0-0.7,0.2-1.2,0.7-1.6
		c0.5-0.4,1-0.6,1.7-0.6c0.7,0,1.2,0.2,1.7,0.6c0.5,0.4,0.7,0.9,0.7,1.6c0,0.7-0.2,1.4-0.6,1.9c-0.4,0.5-1,0.8-1.7,0.8
		s-1.3-0.3-1.8-0.8S98.4,58.4,98.4,57.7z M101.4,42.5l-1.1-7.1l-1.1,7.1H101.4z"/>
	<path fill="#FFFFFF" d="M112.9,29.4h11.3c2.2,0,4,0.5,5.4,1.6c1.6,1.2,2.4,2.9,2.4,5v4.1c0,4.4-2.4,6.6-7.3,6.6h-3v1.2
		c0,0.5,0.2,1,0.7,1.3v4.4h-9.4v-4.4c0.6-0.2,0.9-0.8,0.9-1.7V35.6c0-0.9-0.3-1.4-0.9-1.6V29.4z M121.6,34.8v6.8l0.7,0.1
		c1.3,0,1.9-0.7,1.9-2v-2.7c0-0.9-0.2-1.5-0.7-1.8C123.2,34.9,122.6,34.8,121.6,34.8z"/>
	<path fill="#FFFFFF" d="M154.7,38.2v-2.6c0-0.4-0.1-0.7-0.4-1c-0.2-0.3-0.5-0.4-0.9-0.4c-0.9,0-1.3,0.6-1.3,1.9v11.2
		c0,0.4,0.1,0.8,0.4,1.2c0.2,0.4,0.6,0.5,1,0.5c0.8,0,1.3-0.6,1.3-1.7v-3.8h7.6v7.7c-0.6,1-2,1.7-4.1,2.2c-1.5,0.3-3.1,0.5-4.8,0.5
		c-6,0-9.1-2.5-9.1-7.4v-10c0-2.7,0.7-4.6,2.2-5.8c1.3-1.1,3.4-1.7,6.1-1.7c3.8,0,7,0.8,9.7,2.4v6.9H154.7z"/>
	<path fill="#FFFFFF" d="M165,29.4h9.1v4.2c-0.4,0.4-0.7,1.2-0.7,2.4v2.7h2.7V35c0-0.6-0.2-1-0.7-1.4v-4.2h9.3v4.2
		c-0.7,0.7-1,1.5-0.9,2.3v1v9.5c0,1.5,0.3,2.5,0.9,3v4.2h-9.3v-4.2c0.5-0.3,0.7-1,0.7-2v-4h-2.7v3.3c0,1.3,0.2,2.2,0.7,2.7v4.2H165
		v-4.2c0.6-0.5,0.9-1.3,0.9-2.3V36.2c0-1.3-0.3-2.2-0.9-2.6V29.4z"/>
	<path fill="#FFFFFF" d="M187.5,29.4h9.5v4.2c-0.6,0.4-0.9,1.2-0.9,2.4v10.7c0,0.7,0,1.2,0.1,1.5c0.1,0.4,0.4,0.8,0.8,1.2v4.2h-9.5
		v-4.2c0.5-0.5,0.8-1.1,0.8-2v-12c0-0.8-0.3-1.4-0.8-1.7V29.4z M190.4,27.5l2.1-5.3h4.5l-3.4,5.3H190.4z"/>
	<path fill="#FFFFFF" d="M210.4,29.4h9.1v4.4c-0.4,0.4-0.7,1.3-0.7,2.6v2.7l2-3.1c0.6-0.9,0.9-1.9,0.9-2.8v-3.8h8.2v4.5
		c-0.4,0.1-0.7,0.4-1,0.7c-0.1,0.1-0.6,0.9-1.4,2.3l-2.2,3.6l3.3,6.7c0.3,0.7,0.6,1.1,0.7,1.3c0.3,0.5,0.7,0.8,1.1,0.9v4.2h-8.6v-3
		c0-0.8-0.2-1.8-0.7-2.9l-2.2-4.2v3.3c0,1.3,0.2,2.2,0.7,2.7v4.1h-9.1v-4.2c0.6-0.2,0.9-1.1,0.9-2.5V36.7c0-1.6-0.3-2.5-0.9-2.8
		V29.4z"/>
	<path fill="#FFFFFF" d="M232.9,29.4h9.1v4.2c-0.4,0.4-0.7,1.2-0.7,2.4v2.7h2.7V35c0-0.6-0.2-1-0.7-1.4v-4.2h9.3v4.2
		c-0.7,0.7-1,1.5-0.9,2.3v1v9.5c0,1.5,0.3,2.5,0.9,3v4.2h-9.3v-4.2c0.5-0.3,0.7-1,0.7-2v-4h-2.7v3.3c0,1.3,0.2,2.2,0.7,2.7v4.2h-9.1
		v-4.2c0.6-0.5,0.9-1.3,0.9-2.3V36.2c0-1.3-0.3-2.2-0.9-2.6V29.4z"/>
	<path fill="#FFFFFF" d="M255.6,46.2v-9.9c0-4.8,3.1-7.3,9.4-7.3c2.8,0,5,0.5,6.3,1.4c1.7,1.1,2.5,3,2.5,5.7v10.9
		c0,2.6-0.8,4.5-2.5,5.7c-1.4,0.9-3.5,1.4-6.3,1.4c-3,0-5.2-0.5-6.7-1.6C256.5,51.1,255.6,49,255.6,46.2z M266.3,46.4V36.2
		c0-0.6,0-1,0-1.2c-0.1-0.5-0.5-0.8-1.2-0.8c-1,0-1.6,0.6-1.6,1.9v10.2c0,1.5,0.5,2.3,1.6,2.3C265.8,48.7,266.3,47.9,266.3,46.4z"/>
	<path fill="#FFFFFF" d="M291,29.4l3.3,17.5c0.2,1.2,0.7,2,1.3,2.4v4.2h-9.5v-4.2c0.5-0.4,0.8-1.2,0.8-2.2h-3.7c0,1,0.3,1.8,0.9,2.2
		v4.2H276v-4.4c0.5-0.5,0.9-1.4,1.1-2.4l3.1-17.3H291z M286.2,42.5l-1.1-7.1l-1.1,7.1H286.2z"/>
	<path fill="#FFFFFF" d="M308.2,29.4h9.1v4.2c-0.4,0.4-0.7,1.2-0.7,2.4v2.7h2.7V35c0-0.6-0.2-1-0.7-1.4v-4.2h9.3v4.2
		c-0.7,0.7-1,1.5-0.9,2.3v1v9.5c0,1.5,0.3,2.5,0.9,3v4.2h-9.3v-4.2c0.5-0.3,0.7-1,0.7-2v-4h-2.7v3.3c0,1.3,0.2,2.2,0.7,2.7v4.2h-9.1
		v-4.2c0.6-0.5,0.9-1.3,0.9-2.3V36.2c0-1.3-0.3-2.2-0.9-2.6V29.4z"/>
	<path fill="#FFFFFF" d="M330.9,46.2v-9.9c0-4.8,3.1-7.3,9.4-7.3c2.8,0,5,0.5,6.3,1.4c1.7,1.1,2.5,3,2.5,5.7v10.9
		c0,2.6-0.8,4.5-2.5,5.7c-1.4,0.9-3.5,1.4-6.3,1.4c-3,0-5.2-0.5-6.7-1.6C331.8,51.1,330.9,49,330.9,46.2z M337.8,58
		c0-0.7,0.2-1.2,0.7-1.6c0.5-0.4,1-0.6,1.7-0.6c0.7,0,1.2,0.2,1.7,0.6c0.5,0.4,0.7,0.9,0.7,1.6c0,0.7-0.2,1.4-0.6,1.9
		c-0.4,0.5-1,0.8-1.7,0.8s-1.3-0.3-1.8-0.8C338,59.4,337.8,58.7,337.8,58z M341.5,46.4V36.2c0-0.6,0-1,0-1.2
		c-0.1-0.5-0.5-0.8-1.2-0.8c-1,0-1.6,0.6-1.6,1.9v10.2c0,1.5,0.5,2.3,1.6,2.3C341.1,48.7,341.5,47.9,341.5,46.4z"/>
	<path fill="#FFFFFF" d="M362.1,38.2v-2.6c0-0.4-0.1-0.7-0.4-1c-0.2-0.3-0.5-0.4-0.9-0.4c-0.9,0-1.3,0.6-1.3,1.9v11.2
		c0,0.4,0.1,0.8,0.4,1.2c0.2,0.4,0.6,0.5,1,0.5c0.8,0,1.3-0.6,1.3-1.7v-3.8h7.6v7.7c-0.6,1-2,1.7-4.1,2.2c-1.5,0.3-3.1,0.5-4.8,0.5
		c-6,0-9.1-2.5-9.1-7.4v-10c0-2.7,0.7-4.6,2.2-5.8c1.3-1.1,3.4-1.7,6.1-1.7c3.8,0,7,0.8,9.7,2.4v6.9H362.1z"/>
</g>
<g>
	<path fill="#FFFFFF" d="M77.7,7.1h-3.2v10.7h-2.6V7.1h-3.1V5h8.9V7.1z"/>
	<path fill="#FFFFFF" d="M87.2,13.1h-1.3v4.7h-2.6V5h4.1c1.3,0,2.3,0.3,3,1c0.7,0.7,1.1,1.6,1.1,2.9c0,1.7-0.6,2.9-1.9,3.6l2.3,5.3
		v0.1h-2.8L87.2,13.1z M85.9,11h1.5c0.5,0,0.9-0.2,1.2-0.5c0.3-0.3,0.4-0.8,0.4-1.4c0-1.3-0.5-1.9-1.5-1.9h-1.5V11z"/>
	<path fill="#FFFFFF" d="M105.9,5v2c0.4,0,0.6-0.1,0.8-0.3c0.2-0.2,0.3-0.4,0.4-0.7c0.1-0.3,0.1-0.9,0.1-1.7h1.6
		c0,1.4-0.2,2.4-0.7,3.1c-0.5,0.6-1.2,1-2.3,1v5.1c0,1.4-0.4,2.5-1.1,3.3c-0.8,0.8-1.8,1.2-3.1,1.2c-1.3,0-2.3-0.4-3.1-1.2
		s-1.1-1.9-1.2-3.3V5h2.6v8.6c0,1.5,0.6,2.2,1.6,2.2c1,0,1.6-0.7,1.6-2.2V5H105.9z"/>
	<path fill="#FFFFFF" d="M122.1,11.7c0,1.3-0.2,2.4-0.6,3.3c-0.4,1-0.9,1.7-1.7,2.2c-0.7,0.5-1.5,0.8-2.5,0.8
		c-0.9,0-1.7-0.3-2.4-0.8c-0.7-0.5-1.3-1.2-1.7-2.2c-0.4-0.9-0.6-2-0.6-3.3v-0.6c0-1.2,0.2-2.4,0.6-3.3c0.4-1,0.9-1.7,1.7-2.2
		c0.7-0.5,1.5-0.8,2.5-0.8c1.4,0,2.5,0.5,3.3,1.6c0.3-0.1,0.5-0.4,0.6-0.8c0.1-0.4,0.2-0.9,0.2-1.6h1.7c0,2-0.6,3.2-1.7,3.7
		c0.4,1,0.6,2.1,0.6,3.3V11.7z M118.6,4.2l-2.1,0l-2.4-2.7h2.8L118.6,4.2z M119.4,11.1c0-1.3-0.2-2.4-0.5-3.1s-0.9-1-1.5-1
		c-0.7,0-1.2,0.3-1.5,1s-0.5,1.7-0.5,3v0.6c0,1.3,0.2,2.4,0.5,3.1s0.9,1.1,1.5,1.1c0.7,0,1.2-0.3,1.5-1c0.4-0.7,0.5-1.7,0.5-3V11.1z
		"/>
	<path fill="#FFFFFF" d="M137.2,17.8h-2.6l-3.8-8.4v8.4h-2.6V5h2.6l3.8,8.4V5h2.6V17.8z"/>
	<path fill="#FFFFFF" d="M152.2,16.4c-0.5,0.5-1.1,0.9-1.8,1.2s-1.5,0.4-2.4,0.4c-1.5,0-2.6-0.5-3.4-1.4s-1.2-2.2-1.3-4v-2.3
		c0-1.8,0.4-3.1,1.2-4.1c0.8-1,1.9-1.4,3.4-1.4c1.4,0,2.4,0.3,3.2,1c0.7,0.7,1.1,1.8,1.2,3.2h-2.5c-0.1-0.8-0.2-1.4-0.5-1.7
		c-0.3-0.3-0.7-0.4-1.3-0.4c-0.7,0-1.2,0.3-1.5,0.8c-0.3,0.5-0.5,1.3-0.5,2.4v2.3c0,1.2,0.2,2,0.5,2.6c0.3,0.5,0.9,0.8,1.7,0.8
		c0.5,0,0.9-0.1,1.2-0.3l0.2-0.2V13h-1.8v-2h4.4V16.4z"/>
	<path fill="#FFFFFF" d="M166.8,17.8v-5.7h-1.4v-1.6h1.4V5h3.4c1.5,0,2.7,0.5,3.6,1.4c0.9,1,1.3,2.3,1.4,3.9v2.1c0,1.7-0.4,3-1.3,4
		c-0.9,1-2.1,1.4-3.7,1.4H166.8z M170.8,12.2h-1.4v3.5h0.9c0.8,0,1.4-0.3,1.7-0.7s0.5-1.2,0.5-2.4v-2.2c0-1.2-0.2-2-0.5-2.5
		c-0.3-0.5-0.9-0.7-1.7-0.7h-0.9v3.4h1.4V12.2z"/>
	<path fill="#FFFFFF" d="M187.1,15.2h-3.5l-0.7,2.6h-2.7l4-12.9h2.4l4,12.9h-2.8L187.1,15.2z M185.4,18.6c0.4,0,0.8,0.1,1,0.3
		c0.3,0.2,0.4,0.5,0.4,0.9c0,0.4-0.1,0.6-0.4,0.9c-0.3,0.2-0.6,0.3-1,0.3c-0.4,0-0.8-0.1-1-0.3c-0.3-0.2-0.4-0.5-0.4-0.9
		c0-0.4,0.1-0.6,0.4-0.9C184.6,18.7,185,18.6,185.4,18.6z M184.2,13h2.4l-1.2-4.6L184.2,13z"/>
	<path fill="#FFFFFF" d="M198.7,17.8h-2.6V5h2.6V17.8z"/>
	<path fill="#FFFFFF" d="M222.4,17.8h-2.6v-5.5H216v5.5h-2.6V5h2.6v5.2h3.8V5h2.6V17.8z"/>
	<path fill="#FFFFFF" d="M237.7,12.6c0,1.7-0.4,3.1-1.2,4s-1.9,1.4-3.4,1.4c-1.4,0-2.6-0.5-3.4-1.4s-1.2-2.3-1.3-4v-2.2
		c0-1.8,0.4-3.1,1.2-4.1c0.8-1,2-1.5,3.4-1.5c1.4,0,2.6,0.5,3.4,1.5c0.8,1,1.2,2.3,1.3,4.1V12.6z M235.1,10.4c0-1.2-0.2-2-0.5-2.6
		S233.7,7,233.1,7c-0.7,0-1.2,0.3-1.5,0.8c-0.3,0.5-0.5,1.4-0.5,2.5v2.3c0,1.1,0.2,2,0.5,2.5s0.9,0.8,1.6,0.8c0.7,0,1.2-0.3,1.5-0.8
		c0.3-0.5,0.5-1.3,0.5-2.4V10.4z M233.1,18.7c0.4,0,0.8,0.1,1,0.3c0.3,0.2,0.4,0.5,0.4,0.9s-0.1,0.6-0.4,0.9c-0.3,0.2-0.6,0.3-1,0.3
		c-0.4,0-0.8-0.1-1-0.3c-0.3-0.2-0.4-0.5-0.4-0.9s0.1-0.6,0.4-0.9C232.3,18.8,232.7,18.7,233.1,18.7z"/>
	<path fill="#FFFFFF" d="M252.4,13.5c-0.1,1.5-0.5,2.6-1.2,3.3c-0.8,0.8-1.8,1.1-3.2,1.1c-1.5,0-2.6-0.5-3.3-1.4
		c-0.8-1-1.2-2.3-1.2-4.1v-2.2c0-1.8,0.4-3.1,1.2-4.1s1.9-1.4,3.3-1.4c1.4,0,2.5,0.4,3.2,1.2c0.7,0.8,1.1,1.9,1.2,3.4h-2.6
		c0-0.9-0.2-1.5-0.4-1.9s-0.7-0.5-1.4-0.5c-0.7,0-1.2,0.2-1.5,0.7c-0.3,0.5-0.4,1.3-0.5,2.4v2.4c0,1.3,0.1,2.2,0.4,2.6
		c0.3,0.5,0.8,0.7,1.5,0.7c0.7,0,1.2-0.2,1.4-0.5c0.3-0.3,0.4-0.9,0.4-1.8H252.4z"/>
	<path fill="#FFFFFF" d="M272.7,15.2h-3.5l-0.7,2.6h-2.7l4-12.9h2.4l4,12.9h-2.8L272.7,15.2z M269.7,13h2.4l-1.2-4.6L269.7,13z"/>
	<path fill="#FFFFFF" d="M290.5,17.8h-2.6l-3.8-8.4v8.4h-2.6V5h2.6l3.8,8.4V5h2.6V17.8z"/>
	<path fill="#FFFFFF" d="M313.8,16.4c-0.5,0.5-1.1,0.9-1.8,1.2s-1.5,0.4-2.4,0.4c-1.5,0-2.6-0.5-3.4-1.4s-1.2-2.2-1.3-4v-2.3
		c0-1.8,0.4-3.1,1.2-4.1c0.8-1,1.9-1.4,3.4-1.4c1.4,0,2.4,0.3,3.2,1c0.7,0.7,1.1,1.8,1.2,3.2h-2.5c-0.1-0.8-0.2-1.4-0.5-1.7
		c-0.3-0.3-0.7-0.4-1.3-0.4c-0.7,0-1.2,0.3-1.5,0.8c-0.3,0.5-0.5,1.3-0.5,2.4v2.3c0,1.2,0.2,2,0.5,2.6c0.3,0.5,0.9,0.8,1.7,0.8
		c0.5,0,0.9-0.1,1.2-0.3l0.2-0.2V13h-1.8v-2h4.4V16.4z"/>
	<path fill="#FFFFFF" d="M322.6,17.8H320V5h2.6V17.8z"/>
	<path fill="#FFFFFF" d="M335.2,15.2h-3.5l-0.7,2.6h-2.7l4-12.9h2.4l4,12.9h-2.8L335.2,15.2z M332.2,13h2.4l-1.2-4.6L332.2,13z"/>
	<path fill="#FFFFFF" d="M353,17.8h-2.6l-3.8-8.4v8.4h-2.6V5h2.6l3.8,8.4V5h2.6V17.8z"/>
	<path fill="#FFFFFF" d="M368,16.4c-0.5,0.5-1.1,0.9-1.8,1.2s-1.5,0.4-2.4,0.4c-1.5,0-2.6-0.5-3.4-1.4s-1.2-2.2-1.3-4v-2.3
		c0-1.8,0.4-3.1,1.2-4.1c0.8-1,1.9-1.4,3.4-1.4c1.4,0,2.4,0.3,3.2,1c0.7,0.7,1.1,1.8,1.2,3.2h-2.5c-0.1-0.8-0.2-1.4-0.5-1.7
		c-0.3-0.3-0.7-0.4-1.3-0.4c-0.7,0-1.2,0.3-1.5,0.8c-0.3,0.5-0.5,1.3-0.5,2.4v2.3c0,1.2,0.2,2,0.5,2.6c0.3,0.5,0.9,0.8,1.7,0.8
		c0.5,0,0.9-0.1,1.2-0.3l0.2-0.2V13h-1.8v-2h4.4V16.4z"/>
</g>
</svg>
